<svg width="56" height="32" viewBox="0 0 56 32" fill="none" xmlns="http://www.w3.org/2000/svg">
<g clip-path="url(#clip0_153_57)">
<path d="M29.8035 1.29288C30.5437 0.522902 31.5489 0.090332 32.5956 0.090332C37.3049 0.090332 41.7429 0.0903344 46.1134 0.0903432C54.9036 0.0903616 59.3054 11.1465 53.0898 17.6127L39.5506 31.6976C38.9291 32.3442 37.8663 31.8862 37.8663 30.9717V18.5663L39.4309 16.9385C40.674 15.6453 39.7936 13.434 38.0355 13.434H18.1328L29.8035 1.29288Z" fill="#71717A"/>
<path d="M26.1959 30.7074C25.4558 31.4774 24.4506 31.9099 23.4039 31.9099C18.6946 31.9099 14.2566 31.9099 9.88616 31.9099C1.09586 31.9098 -3.30589 20.8538 2.90977 14.3875L16.449 0.302695C17.0705 -0.343926 18.1333 0.114038 18.1333 1.0285L18.1334 13.4338L16.5686 15.0617C15.3255 16.355 16.2059 18.5662 17.964 18.5662L37.8668 18.5661L26.1959 30.7074Z" fill="#71717A"/>
</g>
<defs>
<clipPath id="clip0_153_57">
<rect width="56" height="32" fill="white"/>
</clipPath>
</defs>
</svg>
