<svg width="178" height="24" viewBox="0 0 178 24" fill="none" xmlns="http://www.w3.org/2000/svg">
<g clip-path="url(#clip0_271_307)">
<path d="M178.001 4.5C178.001 5.32843 177.304 6 176.445 6C175.585 6 174.889 5.32843 174.889 4.5C174.889 3.67157 175.585 3 176.445 3C177.304 3 178.001 3.67157 178.001 4.5Z" fill="white"/>
<path d="M133.174 14.0599C133.229 13.8109 133.108 13.5901 132.874 13.5126L124.166 10.6303C122.991 10.2413 122.382 9.13315 122.658 7.88359C123.011 6.28729 124.671 4.99316 126.366 4.99316H137.634L137.123 7.30747H125.855C125.517 7.30747 125.187 7.56541 125.116 7.88359C125.061 8.13259 125.182 8.35333 125.417 8.43091L134.125 11.3132C135.3 11.7022 135.908 12.8103 135.632 14.0599C135.28 15.6562 133.619 16.9503 131.924 16.9503H120.656L121.167 14.636H132.435C132.773 14.636 133.104 14.378 133.174 14.0599Z" fill="white"/>
<path d="M106.133 4.7998L103.472 16.8534H101.014L103.676 4.7998H106.133Z" fill="white"/>
<path d="M171.266 4.7998C173.302 4.7998 174.609 6.35404 174.186 8.27122L172.312 16.757H169.854L171.728 8.27122C171.869 7.63216 171.433 7.11406 170.755 7.11406H166.249L164.119 16.757H161.662L163.791 7.11406H158.056L155.927 16.757H153.469L155.598 7.11406H158.056L158.567 4.7998H171.266Z" fill="white"/>
<path fill-rule="evenodd" clip-rule="evenodd" d="M65.7408 4.99316C67.7772 4.99316 69.0848 6.54739 68.6616 8.46457L67.2986 14.636H64.8408L64.3298 16.9503H54.908C52.9037 16.9503 51.6055 15.4443 51.9692 13.5685L51.9878 13.4789L53.3505 7.30747H55.8084L56.3193 4.99316H65.7408ZM54.4457 13.4789L54.4341 13.5384C54.332 14.1498 54.7615 14.636 55.4191 14.636H64.8408L66.2032 8.46457C66.3445 7.82551 65.9088 7.30747 65.2298 7.30747H55.8084L54.4457 13.4789Z" fill="white"/>
<path fill-rule="evenodd" clip-rule="evenodd" d="M98.5126 4.99316C100.549 4.99316 101.856 6.54739 101.433 8.46457L100.07 14.636H97.6126L97.1017 16.9503H87.6795C85.6754 16.9503 84.3772 15.4443 84.7406 13.5685L84.7593 13.4789L86.1223 7.30747H88.5801L89.091 4.99316H98.5126ZM87.2171 13.4789L87.2059 13.5384C87.1038 14.1498 87.5332 14.636 88.1905 14.636H97.6126L98.975 8.46457C99.1163 7.82551 98.6806 7.30747 98.0016 7.30747H88.5801L87.2171 13.4789Z" fill="white"/>
<path d="M110.701 7.30747C110.022 7.30747 109.357 7.82551 109.216 8.46457L106.491 20.8075H104.033L106.759 8.46457C107.182 6.54739 109.175 4.99316 111.212 4.99316H119.404L118.893 7.30747H121.351L119.988 13.4789C119.565 15.3961 117.571 16.9503 115.535 16.9503H109.8L110.311 14.636H116.046C116.725 14.636 117.389 14.1179 117.531 13.4789L118.893 7.30747H110.701Z" fill="white"/>
<path d="M71.7444 12.1284C71.6037 12.7675 72.0394 13.2856 72.7177 13.2856H78.453L77.942 15.5998H72.2068C70.171 15.5998 68.8634 14.0456 69.2866 12.1284L70.3085 7.49983H72.7663L73.2773 5.18555H81.4702C83.5067 5.18555 84.8137 6.73975 84.3904 8.65699L82.4318 17.5284C82.0086 19.4456 80.0145 20.9998 77.9781 20.9998H70.0926L70.6042 18.6856H78.4897C79.1681 18.6856 79.8328 18.1675 79.974 17.5284L81.9327 8.65699C82.074 8.01793 81.6383 7.49983 80.9593 7.49983H72.7663L71.7444 12.1284Z" fill="white"/>
<path d="M40.5023 13.4789L42.376 4.99316H39.9182L38.0444 13.4789C37.6211 15.3961 38.9285 16.9503 40.9646 16.9503H49.7877L50.2987 14.636H41.4757C40.797 14.636 40.3612 14.1179 40.5023 13.4789Z" fill="white"/>
<path d="M139.608 13.6713L139.596 13.7308C139.494 14.3422 139.924 14.8284 140.581 14.8284H150.003L152.132 5.18555H154.59L152.461 14.8284H150.003L149.492 17.1427H140.07C138.066 17.1427 136.768 15.6367 137.131 13.7609L137.15 13.6713L139.024 5.18555H141.482L139.608 13.6713Z" fill="white"/>
<path fill-rule="evenodd" clip-rule="evenodd" d="M10.5804 0C10.9242 0 11.2028 0.268629 11.2028 0.6V5.03789C11.2028 5.17151 11.3704 5.23842 11.4684 5.14394L16.4395 0.351563C16.6729 0.126562 16.9895 4.78763e-05 17.3196 0H22.7702C22.9353 2.42411e-05 23.0936 0.0632808 23.2103 0.175781L25.0775 1.97578C25.3204 2.21008 25.3204 2.58992 25.0775 2.82422L22.6712 5.14394C22.5732 5.23844 22.6426 5.39998 22.7812 5.4H27.7493C27.9143 5.40002 28.0727 5.46328 28.1894 5.57578L30.0565 7.3758C30.2995 7.6101 30.2995 7.9899 30.0565 8.2242L27.6046 10.5879C27.4831 10.705 27.4831 10.895 27.6046 11.0121L29.6164 12.9515C30.18 13.4948 30.4965 14.2317 30.4965 15C30.4965 15.7683 30.1799 16.5052 29.6164 17.0485L22.7702 23.6485C22.5369 23.8735 22.2203 23.9999 21.8902 24H19.9161C19.5723 24 19.2937 23.7314 19.2937 23.4V18.9621C19.2937 18.8285 19.1261 18.7616 19.0281 18.8561L14.057 23.6485C13.8236 23.8735 13.507 23.9999 13.1769 24H7.72626C7.5612 24 7.40287 23.9367 7.28617 23.8242L5.41906 22.0242C5.17607 21.7899 5.17607 21.4101 5.41906 21.1758L7.82528 18.8561C7.9233 18.7616 7.85391 18.6 7.7153 18.6H2.74721C2.58218 18.6 2.42387 18.5367 2.30717 18.4242L0.44004 16.6242C0.197049 16.3899 0.197049 16.0101 0.44004 15.7758L2.89187 13.4121C3.01337 13.295 3.01337 13.105 2.89187 12.9879L0.880079 11.0485C0.316574 10.5052 0 9.7683 0 9C0 8.2317 0.316573 7.49484 0.880079 6.95154L7.72626 0.351563C7.95965 0.126562 8.27625 4.80278e-05 8.6063 0H10.5804ZM12.4919 5.4C11.6666 5.4 10.8747 5.7163 10.2911 6.27888L3.6431 12.6879C3.44711 12.8769 3.58592 13.1999 3.86312 13.2H12.9411C13.2182 13.2001 13.357 13.5232 13.1611 13.7121L8.62211 18.0879C8.42612 18.2769 8.56491 18.5999 8.84212 18.6H18.0046C18.8299 18.6 19.6218 18.2837 20.2054 17.7211L26.8534 11.3121C27.0371 11.135 26.9267 10.8398 26.6838 10.8035L26.6334 10.8H17.5554C17.2782 10.8 17.1394 10.4769 17.3354 10.2879L21.8744 5.91211C22.0704 5.72313 21.9316 5.40004 21.6544 5.4H12.4919Z" fill="white"/>
</g>
<defs>
<clipPath id="clip0_271_307">
<rect width="178" height="24" fill="white"/>
</clipPath>
</defs>
</svg>
