<svg width="229" height="32" viewBox="0 0 229 32" fill="none" xmlns="http://www.w3.org/2000/svg">
<g clip-path="url(#clip0_153_10)">
<path d="M229 6C229 7.10457 228.104 8 226.998 8C225.892 8 224.996 7.10457 224.996 6C224.996 4.89543 225.892 4 226.998 4C228.104 4 229 4.89543 229 6Z" fill="#71717A"/>
<path d="M171.329 18.7462C171.4 18.4142 171.243 18.1198 170.942 18.0165L159.74 14.1734C158.228 13.6547 157.445 12.1772 157.8 10.5111C158.254 8.38272 160.389 6.65723 162.57 6.65723H177.067L176.41 9.74296H161.913C161.478 9.74296 161.053 10.0869 160.962 10.5111C160.892 10.8431 161.047 11.1374 161.349 11.2409L172.552 15.0839C174.063 15.6026 174.846 17.0801 174.491 18.7462C174.038 20.8746 171.902 22.6001 169.72 22.6001H155.225L155.882 19.5144H170.378C170.813 19.5144 171.239 19.1704 171.329 18.7462Z" fill="#71717A"/>
<path d="M136.542 6.3999L133.118 22.4713H129.955L133.38 6.3999H136.542Z" fill="#71717A"/>
<path d="M220.337 6.3999C222.957 6.3999 224.639 8.47222 224.094 11.0285L221.684 22.3428H218.521L220.932 11.0285C221.114 10.1764 220.553 9.48558 219.68 9.48558H213.883L211.144 22.3428H207.982L210.721 9.48558H203.343L200.603 22.3428H197.441L200.181 9.48558H203.343L204 6.3999H220.337Z" fill="#71717A"/>
<path fill-rule="evenodd" clip-rule="evenodd" d="M84.5771 6.65723C87.1969 6.65723 88.8792 8.72952 88.3347 11.2858L86.5812 19.5144H83.4192L82.7619 22.6001H70.6406C68.062 22.6001 66.3918 20.5921 66.8597 18.091L66.8837 17.9715L68.6368 9.74296H71.7989L72.4562 6.65723H84.5771ZM70.0457 17.9715L70.0308 18.0509C69.8995 18.8661 70.4521 19.5144 71.298 19.5144H83.4192L85.172 11.2858C85.3537 10.4337 84.7932 9.74296 83.9197 9.74296H71.7989L70.0457 17.9715Z" fill="#71717A"/>
<path fill-rule="evenodd" clip-rule="evenodd" d="M126.738 6.65723C129.358 6.65723 131.039 8.72952 130.495 11.2858L128.742 19.5144H125.58L124.922 22.6001H112.801C110.222 22.6001 108.552 20.5921 109.02 18.091L109.044 17.9715L110.797 9.74296H113.959L114.617 6.65723H126.738ZM112.206 17.9715L112.191 18.0509C112.06 18.8661 112.613 19.5144 113.458 19.5144H125.58L127.333 11.2858C127.514 10.4337 126.954 9.74296 126.08 9.74296H113.959L112.206 17.9715Z" fill="#71717A"/>
<path d="M142.418 9.74296C141.544 9.74296 140.689 10.4337 140.508 11.2858L137.002 27.743H133.84L137.346 11.2858C137.891 8.72952 140.455 6.65723 143.075 6.65723H153.615L152.957 9.74296H156.119L154.367 17.9715C153.822 20.5278 151.257 22.6001 148.638 22.6001H141.259L141.916 19.5144H149.295C150.168 19.5144 151.023 18.8236 151.205 17.9715L152.957 9.74296H142.418Z" fill="#71717A"/>
<path d="M92.2995 16.1712C92.1185 17.0233 92.679 17.7141 93.5518 17.7141H100.93L100.273 20.7998H92.8944C90.2753 20.7998 88.593 18.7275 89.1375 16.1712L90.4523 9.99977H93.6142L94.2716 6.91406H104.812C107.432 6.91406 109.113 8.98633 108.569 11.5427L106.049 23.3712C105.505 25.9275 102.939 27.9998 100.319 27.9998H90.1744L90.8326 24.9141H100.977C101.85 24.9141 102.705 24.2233 102.887 23.3712L105.407 11.5427C105.589 10.6906 105.028 9.99977 104.155 9.99977H93.6142L92.2995 16.1712Z" fill="#71717A"/>
<path d="M52.1062 17.9715L54.5168 6.65723H51.3548L48.9442 17.9715C48.3996 20.5278 50.0816 22.6001 52.7011 22.6001H64.0521L64.7096 19.5144H53.3585C52.4854 19.5144 51.9247 18.8236 52.1062 17.9715Z" fill="#71717A"/>
<path d="M179.608 18.2283L179.594 18.3077C179.462 19.1229 180.015 19.7712 180.86 19.7712H192.982L195.721 6.91406H198.883L196.144 19.7712H192.982L192.325 22.8569H180.203C177.625 22.8569 175.955 20.8489 176.422 18.3479L176.446 18.2283L178.857 6.91406H182.019L179.608 18.2283Z" fill="#71717A"/>
<path fill-rule="evenodd" clip-rule="evenodd" d="M13.6119 0C14.0541 0 14.4126 0.358172 14.4126 0.8V6.71718C14.4126 6.89534 14.6282 6.98456 14.7543 6.85859L21.1498 0.46875C21.45 0.168749 21.8573 6.3835e-05 22.2819 0H29.2943C29.5066 3.23215e-05 29.7103 0.0843744 29.8605 0.234375L32.2626 2.63438C32.5752 2.94678 32.5752 3.45322 32.2626 3.76562L29.1669 6.85859C29.0408 6.98458 29.1301 7.19998 29.3084 7.2H35.6999C35.9122 7.20003 36.1159 7.28438 36.2661 7.43438L38.6682 9.8344C38.9808 10.1468 38.9808 10.6532 38.6682 10.9656L35.5138 14.1172C35.3575 14.2734 35.3575 14.5266 35.5138 14.6828L38.102 17.2687C38.827 17.9931 39.2343 18.9756 39.2343 20C39.2343 21.0244 38.827 22.0069 38.102 22.7313L29.2943 31.5313C28.994 31.8313 28.5867 31.9999 28.1621 32H25.6224C25.1802 32 24.8217 31.6418 24.8217 31.2V25.2828C24.8217 25.1046 24.6061 25.0154 24.4799 25.1414L18.0845 31.5313C17.7843 31.8313 17.3769 31.9999 16.9523 32H9.93996C9.72762 32 9.52392 31.9156 9.37379 31.7656L6.97171 29.3656C6.6591 29.0532 6.6591 28.5468 6.97171 28.2344L10.0674 25.1414C10.1935 25.0154 10.1042 24.8 9.92587 24.8H3.53433C3.32202 24.8 3.11835 24.7156 2.96822 24.5656L0.566119 22.1656C0.253506 21.8532 0.253507 21.3468 0.566119 21.0344L3.72043 17.8828C3.87675 17.7266 3.87675 17.4734 3.72043 17.3172L1.13224 14.7313C0.407277 14.0069 0 13.0244 0 12C0 10.9756 0.407277 9.99312 1.13224 9.26872L9.93996 0.46875C10.2402 0.168749 10.6475 6.4037e-05 11.0722 0H13.6119ZM16.0711 7.2C15.0093 7.2 13.9905 7.62173 13.2397 8.37184L4.68691 16.9172C4.43476 17.1692 4.61335 17.5999 4.96996 17.6H16.6489C17.0055 17.6001 17.184 18.0309 16.932 18.2828L11.0925 24.1172C10.8403 24.3692 11.0189 24.7999 11.3755 24.8H23.1632C24.225 24.8 25.2438 24.3782 25.9945 23.6282L34.5474 15.0828C34.7837 14.8466 34.6416 14.453 34.3292 14.4047L34.2643 14.4H22.5853C22.2287 14.4 22.0501 13.9692 22.3023 13.7172L28.1418 7.88282C28.3939 7.63084 28.2154 7.20005 27.8587 7.2H16.0711Z" fill="#71717A"/>
</g>
<defs>
<clipPath id="clip0_153_10">
<rect width="229" height="32" fill="white"/>
</clipPath>
</defs>
</svg>
