<svg width="171" height="32" viewBox="0 0 171 32" fill="none" xmlns="http://www.w3.org/2000/svg">
<g clip-path="url(#clip0_153_26)">
<path d="M164.784 8.18896L164.878 8.22048C166.104 8.25192 167.173 9.10176 167.487 10.2662L167.519 10.3922L170.694 23.2962H166.481L164.595 15.6167L163.118 20.3062C162.678 21.5967 161.483 22.5094 160.1 22.5094C158.78 22.5094 157.585 21.6596 157.145 20.4322L157.082 20.3062L155.604 15.6167L153.719 23.2962H149.537L152.681 10.3922L152.713 10.2662C153.059 9.0388 154.158 8.18896 155.448 8.18896L155.542 8.22048C156.705 8.25192 157.711 9.00728 158.12 10.0774L158.151 10.1718L160.1 16.3091L162.049 10.1718L162.081 10.0774C162.489 8.94432 163.558 8.18896 164.784 8.18896Z" fill="#71717A"/>
<path d="M141.812 23.2962C137.631 23.2962 134.268 19.9286 134.268 15.7426V8.18896H138.323V15.7426C138.323 17.6625 139.895 19.2362 141.812 19.2362C143.698 19.2362 145.27 17.6625 145.27 15.7426V8.18896H149.357V15.7426C149.357 19.9286 145.962 23.2962 141.812 23.2962Z" fill="#71717A"/>
<path d="M133.528 8.18896V12.2806C131.767 12.2806 130.227 13.445 129.724 15.1446L129.001 17.5366C127.995 20.9672 124.851 23.2962 121.299 23.2962V19.2362C123.028 19.2362 124.6 18.0717 125.102 16.3721L125.794 13.9801C126.8 10.5495 129.944 8.18896 133.528 8.18896Z" fill="#71717A"/>
<path d="M117.227 14.7354C117.887 14.7354 118.452 14.2004 118.452 13.508C118.452 12.847 117.887 12.2806 117.227 12.2806H112.731V14.7354H117.227ZM117.227 8.18896C120.15 8.18896 122.54 10.581 122.54 13.508C122.54 16.435 120.15 18.827 117.227 18.827H112.731V23.2962H108.676V11.8714C108.676 9.85712 110.311 8.18896 112.323 8.18896H117.227Z" fill="#71717A"/>
<path d="M102.633 8.18896H106.688V23.2962H102.633V8.18896Z" fill="#71717A"/>
<path d="M93.4883 12.0915H92.6709C90.6276 12.0915 88.9928 13.7282 88.9928 15.7425C88.9928 17.7882 90.6276 19.4249 92.6709 19.4249H93.4883C95.5315 19.4249 97.1664 17.7882 97.1664 15.7425C97.1664 13.7282 95.5315 12.0915 93.4883 12.0915ZM92.6709 8H93.4883C97.7633 8 101.222 11.4621 101.222 15.7425C101.222 20.0543 97.7633 23.5164 93.4883 23.5164H92.6709C88.3959 23.5164 84.9375 20.0543 84.9375 15.7425C84.9375 11.4621 88.3959 8 92.6709 8Z" fill="#71717A"/>
<path d="M83.2147 12.2806H75.2928C73.3751 12.2806 71.8034 13.8542 71.8034 15.7426C71.8034 17.6625 73.3751 19.2362 75.2928 19.2362H79.2224C79.6311 19.1732 79.9769 18.827 79.9769 18.3864V18.0087H73.8467V13.9172H80.6689C82.5546 13.9172 84.0321 15.4279 84.0321 17.2848V18.3864C84.0321 21.0617 81.9258 23.2333 79.2539 23.2962H75.2928C71.1117 23.2962 67.748 19.9286 67.748 15.7426C67.748 11.5882 71.1117 8.18896 75.2928 8.18896H83.2147V12.2806Z" fill="#71717A"/>
<path d="M59.2949 12.0915H58.4776C56.4341 12.0915 54.7995 13.7282 54.7995 15.7425C54.7995 17.7882 56.4341 19.4249 58.4776 19.4249H59.2949C61.3383 19.4249 62.973 17.7882 62.973 15.7425C62.973 13.7282 61.3383 12.0915 59.2949 12.0915ZM58.4776 8H59.2949C63.5703 8 67.0283 11.4621 67.0283 15.7425C67.0283 20.0543 63.5703 23.5164 59.2949 23.5164H58.4776C54.2022 23.5164 50.7441 20.0543 50.7441 15.7425C50.7441 11.4621 54.2022 8 58.4776 8Z" fill="#71717A"/>
<path d="M37.5566 17.1904V8.18896H41.612V17.1904C41.612 18.3234 42.5236 19.2362 43.6553 19.2362H49.7855V23.2962H43.6553C40.2916 23.2962 37.5566 20.5581 37.5566 17.1904Z" fill="#71717A"/>
<path d="M6.08273 2.00894C8.82256 0.48715 11.9491 -0.194778 15.073 0.0479983C18.1967 0.290784 21.1804 1.44777 23.6528 3.37456C26.1252 5.30143 27.9771 7.91402 28.9786 10.8862C29.9801 13.8585 30.0874 17.0601 29.2861 20.0926L29.1253 20.6574C28.2725 23.4635 26.6644 25.9854 24.4722 27.9426L24.0266 28.3254C21.7698 30.1957 19.0394 31.4114 16.1327 31.8339L15.5505 31.9082C13.5829 32.1207 11.5998 31.963 9.70033 31.4534L12.4292 28.7214C13.5029 28.8404 14.5929 28.8246 15.6731 28.6675C18.1536 28.307 20.4741 27.2243 22.345 25.5542C24.2158 23.8842 25.5548 21.6997 26.1959 19.2738C26.7968 16.9994 26.7593 14.6061 26.0921 12.3566L25.9501 11.909C25.1489 9.5312 23.6674 7.44104 21.6895 5.89956C19.8353 4.45457 17.6215 3.55133 15.2931 3.28394L14.8256 3.23862C12.3265 3.0444 9.82515 3.58995 7.63326 4.80738C6.17336 5.6183 4.89519 6.7051 3.86111 7.99722H0C1.44665 5.49028 3.5464 3.41774 6.08273 2.00894Z" fill="#71717A"/>
<path d="M8.56144 6.12099C10.4029 5.13565 12.4835 4.68661 14.567 4.82333C16.6504 4.96011 18.6544 5.67763 20.3516 6.8952C22.0485 8.11274 23.3716 9.78146 24.1705 11.7124C24.9695 13.6435 25.2121 15.761 24.8721 17.8233C24.5319 19.8855 23.622 21.8119 22.2454 23.3835C20.8688 24.955 19.0799 26.1095 17.082 26.7163L16.7058 26.8241C15.8034 27.064 14.878 27.1865 13.9513 27.196L19.3293 21.8124C19.509 21.6423 19.682 21.4643 19.8459 21.2772C20.8298 20.1541 21.4802 18.777 21.7234 17.303C21.9665 15.8291 21.7927 14.316 21.2217 12.9359C20.6507 11.5556 19.705 10.3631 18.4921 9.4929L18.2627 9.33346C17.1004 8.5597 15.7538 8.1033 14.3579 8.01162L14.0792 7.99755C13.9546 7.99374 13.8298 7.99396 13.7054 7.99599H6.00977C6.76393 7.25684 7.6218 6.62386 8.56144 6.12099Z" fill="#71717A"/>
<path d="M6.7998 25.3228C6.45357 25.6698 6.50144 26.2455 6.90023 26.5304C7.21548 26.7555 7.6471 26.7194 7.92103 26.4454L16.0891 18.2678C17.3406 17.0148 17.3406 14.9831 16.0891 13.7302C15.4881 13.1286 14.6727 12.7905 13.8229 12.7905H4.89388C4.53711 12.7905 4.22261 13.0262 4.12194 13.3688C3.97072 13.8843 4.35673 14.4004 4.89333 14.4008L13.3627 14.4079C14.9638 14.4087 15.7653 16.3468 14.6329 17.4806L6.7998 25.3228ZM10.1811 28.7081C8.8027 30.0879 6.63013 30.2687 5.04348 29.1351C3.03656 27.7012 2.79649 24.8056 4.5397 23.0601L9.98804 17.6054L4.89168 17.601C2.22197 17.5993 0.302385 15.0299 1.05569 12.4656C1.55644 10.7611 3.11924 9.59082 4.89388 9.59082H13.8229C15.5204 9.59082 17.1488 10.2657 18.3491 11.4674C20.8489 13.9701 20.8489 18.0279 18.3491 20.5305L10.1811 28.7081Z" fill="#71717A"/>
</g>
<defs>
<clipPath id="clip0_153_26">
<rect width="171" height="32" fill="white"/>
</clipPath>
</defs>
</svg>
