<svg width="181" height="24" viewBox="0 0 181 24" fill="none" xmlns="http://www.w3.org/2000/svg">
<g clip-path="url(#clip0_271_320)">
<path fill-rule="evenodd" clip-rule="evenodd" d="M14.1021 0C14.3354 0 14.5674 0.00559895 14.798 0.0168194C14.8026 0.0170434 14.8065 0.0133699 14.8065 0.00875796C14.8065 0.00430179 14.8101 0.00068934 14.8146 0.00068934H27.7056C27.981 0.00082779 28.2041 0.22408 28.2041 0.49977C28.2041 0.632136 28.1516 0.75909 28.0582 0.852714L24.6779 4.23529H31.8866C32.363 4.23529 32.7986 4.51616 32.9647 4.96322C33.5337 6.495 33.845 8.15226 33.845 9.88236C33.845 17.6793 27.5312 24 19.7429 24C19.5096 24 19.2778 23.9938 19.0473 23.9825C19.0425 23.9823 19.0385 23.9861 19.0385 23.9909C19.0385 23.9956 19.0347 23.9993 19.0301 23.9993H6.13938C5.864 23.9992 5.64083 23.7759 5.64083 23.5003C5.64084 23.3678 5.69334 23.2409 5.7868 23.1473L9.16567 19.7647H1.95838C1.48195 19.7647 1.04629 19.4839 0.880235 19.0368C0.311253 17.505 0 15.8477 0 14.1176C0 6.3207 6.31372 0 14.1021 0ZM18.9276 9.99336C17.7637 8.6298 16.0341 7.76472 14.1021 7.76472C10.5973 7.76472 7.75615 10.609 7.75615 14.1176C7.75615 14.8603 7.88441 15.5728 8.11833 16.2353H12.6912L14.9173 14.0066C16.0813 15.3702 17.8108 16.2353 19.7429 16.2353C23.2477 16.2353 26.0888 13.391 26.0888 9.88236C26.0888 9.13968 25.9606 8.42718 25.7266 7.76472H21.1538L18.9276 9.99336Z" fill="white"/>
<path d="M174.417 18.1041V9.66164C174.417 9.41834 174.198 9.19934 173.955 9.19934H173.639C173.445 9.19934 173.275 9.32102 173.202 9.4913L170.261 16.4497C169.848 17.4715 168.852 18.1041 167.758 18.1041C166.665 18.1041 165.692 17.4715 165.279 16.4497L162.314 9.4913C162.265 9.32102 162.095 9.19934 161.901 9.19934H161.585C161.342 9.19934 161.123 9.41834 161.123 9.66164V18.1041H158.377V9.66164C158.377 7.88558 159.811 6.42578 161.585 6.42578H161.901C163.189 6.42578 164.355 7.20434 164.866 8.42078L167.758 15.2818L170.65 8.42078C171.16 7.20434 172.327 6.42578 173.639 6.42578H173.955C175.73 6.42578 177.163 7.88558 177.163 9.66164V18.1041H174.417Z" fill="white"/>
<path d="M145.843 18.1041C143.047 18.1041 140.787 15.8414 140.787 13.0435V6.42578H143.533V13.0435C143.533 14.3086 144.579 15.3548 145.843 15.3548H151.675C152.939 15.3548 153.984 14.3086 153.984 13.0435V6.42578H156.73V13.0435C156.73 15.8414 154.47 18.1041 151.675 18.1041H145.843Z" fill="white"/>
<path d="M135.727 15.3548C136.189 15.3548 136.578 14.9655 136.578 14.5033C136.578 14.041 136.213 13.6761 135.775 13.6517H129.287C127.294 13.6517 125.689 12.046 125.689 10.0509C125.689 8.05586 127.294 6.42578 129.287 6.42578H139.348V9.19934H129.287C128.825 9.19934 128.436 9.58862 128.436 10.0509C128.436 10.5132 128.825 10.9024 129.287 10.9024H135.824C137.768 10.9511 139.348 12.5326 139.348 14.5033C139.348 16.4983 137.719 18.1041 135.727 18.1041H125.689V15.3548H135.727Z" fill="white"/>
<path d="M110.27 18.1041V9.66164C110.27 7.88558 111.704 6.42578 113.478 6.42578H120.55C122.834 6.42578 124.681 8.29916 124.681 10.5862C124.681 12.8731 122.834 14.7466 120.55 14.7466H113.016V18.1041H110.27ZM113.016 9.66164V11.973H120.55C121.303 11.973 121.935 11.3404 121.935 10.5862C121.935 9.83192 121.303 9.19934 120.55 9.19934H113.478C113.234 9.19934 113.016 9.41834 113.016 9.66164Z" fill="white"/>
<path d="M105.643 6.42578H108.389V18.1041H105.643V6.42578Z" fill="white"/>
<path d="M98.3674 15.3548C100.069 15.3548 101.454 13.968 101.454 12.2649C101.454 10.5862 100.069 9.19934 98.3674 9.19934H94.09C92.389 9.19934 91.004 10.5862 91.004 12.2649C91.004 13.968 92.389 15.3548 94.09 15.3548H98.3674ZM98.3674 6.42578C101.6 6.42578 104.2 9.05336 104.2 12.2649C104.2 15.5008 101.6 18.1041 98.3674 18.1041H94.09C90.8577 18.1041 88.2578 15.5008 88.2578 12.2649C88.2578 9.05336 90.8577 6.42578 94.09 6.42578H98.3674Z" fill="white"/>
<path d="M77.571 18.1041C74.3388 18.1041 71.7383 15.5008 71.7383 12.2649C71.7383 9.05336 74.3388 6.42578 77.571 6.42578H86.0043V9.19934H77.571C75.8701 9.19934 74.485 10.5862 74.485 12.2649C74.485 13.968 75.8701 15.3548 77.571 15.3548H83.7688C84.2303 15.3548 84.6192 14.9655 84.6192 14.5033C84.6192 14.041 84.2303 13.6517 83.7688 13.6517H77.1095V10.9024H83.7688C85.7616 10.9024 87.3894 12.5082 87.3894 14.5033C87.3894 16.4983 85.7616 18.1041 83.7688 18.1041H77.571Z" fill="white"/>
<path d="M64.999 15.3548C66.6999 15.3548 68.0849 13.968 68.0849 12.2649C68.0849 10.5862 66.6999 9.19934 64.999 9.19934H60.7215C59.0201 9.19934 57.6349 10.5862 57.6349 12.2649C57.6349 13.968 59.0201 15.3548 60.7215 15.3548H64.999ZM64.999 6.42578C68.2312 6.42578 70.8311 9.05336 70.8311 12.2649C70.8311 15.5008 68.2312 18.1041 64.999 18.1041H60.7215C57.4891 18.1041 54.8887 15.5008 54.8887 12.2649C54.8887 9.05336 57.4891 6.42578 60.7215 6.42578H64.999Z" fill="white"/>
<path d="M43.6427 14.8923C43.6427 15.1356 43.8614 15.3546 44.1044 15.3546H54.3846V18.1038H44.1044C42.3303 18.1038 40.8965 16.6684 40.8965 14.8923V6.35254H43.6427V14.8923Z" fill="white"/>
<path d="M180.506 6.35318C180.506 7.13288 179.874 7.76492 179.096 7.76492C178.317 7.76492 177.686 7.13288 177.686 6.35318C177.686 5.57348 178.317 4.94141 179.096 4.94141C179.874 4.94141 180.506 5.57348 180.506 6.35318Z" fill="white"/>
</g>
<defs>
<clipPath id="clip0_271_320">
<rect width="181" height="24" fill="white"/>
</clipPath>
</defs>
</svg>
