<svg width="166" height="30" viewBox="0 0 166 30" fill="none" xmlns="http://www.w3.org/2000/svg">
<g clip-path="url(#clip0_271_333)">
<path fill-rule="evenodd" clip-rule="evenodd" d="M28.7615 0.702999C29.7293 -0.226945 31.2549 -0.231174 32.2277 0.67187L32.3199 0.761595L32.6344 1.09302C35.821 4.53667 37.0084 8.54978 36.7039 12.4691C36.3949 16.4436 34.5693 20.1917 32.0225 23.1535C29.4773 26.1134 26.0792 28.4444 22.4061 29.4562C18.6868 30.4804 14.6189 30.1539 11.0879 27.6495C8.09295 25.5252 6.95271 22.0921 6.87525 18.757C5.19464 17.9289 3.42631 16.8996 1.57093 15.6479L1.08068 15.3134L0.976238 15.2377C-0.0771209 14.4292 -0.31797 12.9328 0.449738 11.8343C1.21768 10.7357 2.71298 10.4377 3.84342 11.136L3.95216 11.2068L4.3988 11.512C5.51026 12.2618 6.57082 12.9119 7.57927 13.4731C8.22983 11.1794 9.3078 8.9772 10.7278 7.1619C12.8554 4.44242 16.0452 2.2676 19.953 2.59208C23.4729 2.88456 26.0737 4.70882 27.4161 7.28336C28.7159 9.77633 28.7352 12.7752 27.5992 15.3542C26.441 17.9834 24.0897 20.1739 20.7073 21.0764C18.2732 21.7259 15.4216 21.6813 12.2041 20.8115V20.8127C10.9234 20.4664 9.5811 19.988 8.1783 19.3668C7.8636 19.2274 7.5897 19.4404 8.1783 19.8099C9.83482 20.9911 12.1684 21.9813 12.8437 22.3136C13.1628 22.8323 13.5586 23.2578 14.0122 23.5795C16.0996 25.0601 18.5417 25.3314 21.0619 24.6373C23.6283 23.9304 26.2006 22.226 28.1957 19.9058C30.1893 17.5873 31.4746 14.8094 31.6865 12.0839C31.8863 9.51225 31.1477 6.87034 28.9225 4.46957L28.7026 4.23824L28.6147 4.14302C27.7391 3.14709 27.7943 1.63288 28.7615 0.702999ZM19.534 7.57515C17.9194 7.44106 16.2155 8.29492 14.7015 10.2302C13.5484 11.7041 12.676 13.6193 12.2312 15.5899C15.3998 16.6781 17.7611 16.6855 19.4019 16.2478C21.3013 15.741 22.4403 14.5935 22.9885 13.3492C23.5587 12.0545 23.5003 10.6437 22.9473 9.5832C22.4369 8.60437 21.4094 7.731 19.534 7.57515Z" fill="white"/>
<path d="M103.282 10.202C101.88 10.202 100.98 9.14453 101.175 7.72598C101.37 6.30745 102.561 5.25 103.963 5.25C105.365 5.25 106.265 6.30745 106.07 7.72598C105.875 9.14453 104.684 10.202 103.282 10.202Z" fill="white"/>
<path d="M99.457 24.1033L101.21 11.3623H105.034L103.281 24.1033H99.457Z" fill="white"/>
<path fill-rule="evenodd" clip-rule="evenodd" d="M106.178 17.8621L104.57 29.5456H108.395L109.335 22.7108C109.97 23.8457 111.163 24.4389 112.667 24.4389C115.523 24.4389 119.077 22.324 119.687 17.8878C120.251 13.787 117.827 11.0273 113.824 11.0273C109.974 11.0273 106.767 13.5806 106.178 17.8621ZM115.833 17.7331C115.581 19.5643 114.234 20.828 112.501 20.828C110.767 20.828 109.768 19.5643 110.02 17.7331C110.272 15.9019 111.619 14.6381 113.352 14.6381C115.086 14.6381 116.085 15.9019 115.833 17.7331Z" fill="white"/>
<path d="M124.782 24.4389C121.544 24.4389 119.694 22.685 119.98 20.2349H123.753C123.687 20.9054 124.125 21.2408 125.17 21.2408C126.343 21.2408 126.783 20.828 126.857 20.2865C126.966 19.4918 126.183 19.3716 125.144 19.2123L125.14 19.2116C125.067 19.2005 124.994 19.1891 124.919 19.1774C123.221 18.9195 120.426 18.4811 120.848 15.4118C121.203 12.8327 123.465 11.0273 126.601 11.0273C129.737 11.0273 131.423 12.8585 131.184 15.1539H127.461C127.44 14.5607 126.977 14.2255 126.212 14.2255C125.269 14.2255 124.819 14.7155 124.748 15.2313C124.647 15.97 125.466 16.0975 126.538 16.2646L126.693 16.2887C128.468 16.5467 131.179 17.0367 130.764 20.0543C130.402 22.685 128.019 24.4389 124.782 24.4389Z" fill="white"/>
<path d="M146.383 16.9336L145.396 24.1036H149.221L150.207 16.9336C150.442 15.2313 151.339 14.6381 152.486 14.6381C153.608 14.6381 154.342 15.2313 154.108 16.9336L153.121 24.1036H156.946L157.932 16.9336C158.167 15.2313 159.064 14.6381 160.186 14.6381C161.333 14.6381 162.067 15.2313 161.833 16.9336L160.846 24.1036H164.671L165.658 16.9336C166.222 12.8327 164.125 11.0273 161.065 11.0273C159.255 11.0273 157.68 11.7237 156.553 13.0649C155.794 11.7237 154.385 11.0273 152.6 11.0273C149.541 11.0273 146.947 12.8327 146.383 16.9336Z" fill="white"/>
<path d="M132.178 17.9649C131.585 22.2721 133.786 24.4386 137.508 24.4386C141.23 24.4386 144.03 22.2463 144.62 17.9649L145.528 11.3623H141.704L140.795 17.9649C140.519 19.9767 139.433 20.8278 138.005 20.8278C136.577 20.8278 135.725 19.9767 136.002 17.9649L136.91 11.3623H133.086L132.178 17.9649Z" fill="white"/>
<path fill-rule="evenodd" clip-rule="evenodd" d="M85.2527 17.7331C84.721 21.6018 87.1352 24.4389 91.1125 24.4389C95.0897 24.4389 98.284 21.6018 98.8165 17.7331C99.349 13.8644 96.9347 11.0273 92.9575 11.0273C88.9802 11.0273 85.7852 13.8644 85.2527 17.7331ZM94.9412 17.7331C94.6892 19.5643 93.3422 20.828 91.609 20.828C89.875 20.828 88.876 19.5643 89.128 17.7331C89.38 15.9019 90.727 14.6381 92.4602 14.6381C94.1942 14.6381 95.1932 15.9019 94.9412 17.7331Z" fill="white"/>
<path fill-rule="evenodd" clip-rule="evenodd" d="M73.075 23.2409C71.5302 22.0574 70.7641 20.0861 71.0878 17.7331C71.62 13.8644 74.8147 11.0273 78.7917 11.0273C82.7689 11.0273 85.1832 13.8644 84.6514 17.7331C84.1369 21.47 81.1384 24.2444 77.3509 24.4291C78.2427 24.9421 79.5387 25.3569 80.4912 25.6618C80.8092 25.7636 81.0889 25.8533 81.3027 25.9301C82.1674 26.1488 82.7194 26.964 82.5859 27.9362C82.4292 29.0759 81.3889 29.9999 80.2617 29.9999H74.1419C71.8885 29.9999 70.3161 28.1519 70.6297 25.8724H77.1559C75.6649 25.289 74.089 24.122 73.075 23.2409ZM77.4439 20.828C79.1772 20.828 80.5242 19.5643 80.7762 17.7331C81.0282 15.9019 80.0292 14.6381 78.2952 14.6381C76.5619 14.6381 75.2149 15.9019 74.963 17.7331C74.7111 19.5643 75.7099 20.828 77.4439 20.828Z" fill="white"/>
<path fill-rule="evenodd" clip-rule="evenodd" d="M56.9247 17.7331C56.3925 21.6018 58.8066 24.4389 62.7839 24.4389C66.7612 24.4389 69.956 21.6018 70.4882 17.7331C71.0205 13.8644 68.6063 11.0273 64.629 11.0273C60.6518 11.0273 57.4569 13.8644 56.9247 17.7331ZM66.6129 17.7331C66.361 19.5643 65.0144 20.828 63.2807 20.828C61.547 20.828 60.5481 19.5643 60.8 17.7331C61.0519 15.9019 62.3986 14.6381 64.1322 14.6381C65.8659 14.6381 66.8649 15.9019 66.6129 17.7331Z" fill="white"/>
<path d="M43.5 24.104L45.8206 7.23633H49.9507L48.1624 20.2353H56.0405L55.5083 24.104H43.5Z" fill="white"/>
</g>
<defs>
<clipPath id="clip0_271_333">
<rect width="165.75" height="30" fill="white"/>
</clipPath>
</defs>
</svg>
