<svg width="47" height="32" viewBox="0 0 47 32" fill="none" xmlns="http://www.w3.org/2000/svg">
<g clip-path="url(#clip0_153_40)">
<path d="M7.9661 12.1226L44.6304 21.8914C46.0272 22.2636 47 23.5331 47 24.9844V32H39.0339V28.6766L23.5008 24.5383L7.9661 28.6766V32H0V24.9844C3.61658e-06 23.5331 0.972804 22.2636 2.3696 21.8914L7.9669 20.3992L2.3696 18.9086C0.972789 18.5365 2.41028e-05 17.2669 0 15.8156V11.2C0 9.43272 1.42662 8 3.18644 8H7.9661V12.1226Z" fill="#71717A"/>
<path d="M43.8129 8C45.5727 8 46.9993 9.43272 46.9993 11.2V16H39.0332V8H43.8129Z" fill="#71717A"/>
<path d="M35.8482 0C37.6079 0 39.0346 1.43269 39.0346 3.2V8H7.9668V3.2C7.9668 1.43269 9.39345 2.25493e-08 11.1532 0H35.8482Z" fill="#71717A"/>
</g>
<defs>
<clipPath id="clip0_153_40">
<rect width="47" height="32" fill="white"/>
</clipPath>
</defs>
</svg>
