<svg width="158" height="28" viewBox="0 0 158 28" fill="none" xmlns="http://www.w3.org/2000/svg">
<g clip-path="url(#clip0_271_346)">
<path d="M22.5712 16.7997C22.5712 12.676 19.2937 9.33301 15.2508 9.33301H9.15039V16.7997H15.2508V26.133H22.5712V16.7997Z" fill="white"/>
<path d="M5.3331e-08 17.422C5.33346e-07 22.233 3.82373 26.1331 8.54054 26.1331H13.4209V18.6665H8.54054C7.86669 18.6665 7.32046 18.1093 7.32046 17.422V16.7998H0L5.3331e-08 17.422Z" fill="white"/>
<path d="M15.251 0C24.3477 0 31.722 7.52161 31.722 16.8V26.1333H24.4015V16.8C24.4015 11.6453 20.3047 7.46667 15.251 7.46667H8.54054C7.86669 7.46667 7.32046 8.0238 7.32046 8.71111V9.33333H0V8.71111C4.80015e-07 3.9001 3.82373 -1.97208e-08 8.54054 0H15.251Z" fill="white"/>
<path d="M92.8293 7.16645C92.3517 7.16645 91.9515 7.00187 91.6276 6.67265C91.3042 6.3435 91.1426 5.9359 91.1426 5.44994C91.1426 4.96397 91.3042 4.55639 91.6276 4.2272C91.9515 3.898 92.3517 3.7334 92.8293 3.7334C93.2911 3.7334 93.684 3.898 94.0073 4.2272C94.3306 4.55639 94.4923 4.96397 94.4923 5.44994C94.4923 5.9359 94.3306 6.3435 94.0073 6.67265C93.684 7.00187 93.2911 7.16645 92.8293 7.16645Z" fill="white"/>
<path d="M94.1238 8.88281V21.8391H91.4902V8.88281H94.1238Z" fill="white"/>
<path fill-rule="evenodd" clip-rule="evenodd" d="M101.23 9.28223C100.46 9.68979 99.8516 10.1914 99.405 10.7871V8.88252H96.7715V27.9995H99.405V19.9577C99.8827 20.5533 100.499 21.055 101.253 21.4626C102.008 21.8545 102.87 22.0505 103.841 22.0505C104.95 22.0505 105.958 21.7683 106.867 21.2039C107.791 20.6239 108.515 19.8244 109.039 18.8055C109.562 17.7708 109.824 16.603 109.824 15.3019C109.824 14.0007 109.562 12.8486 109.039 11.8453C108.515 10.842 107.791 10.066 106.867 9.51737C105.958 8.95301 104.95 8.6709 103.841 8.6709C102.87 8.6709 102 8.87468 101.23 9.28223ZM106.589 12.9975C106.959 13.6402 107.144 14.4083 107.144 15.3019C107.144 16.1954 106.959 16.9792 106.589 17.6533C106.236 18.3274 105.758 18.8447 105.158 19.2052C104.572 19.5501 103.941 19.7226 103.263 19.7226C102.601 19.7226 101.97 19.5501 101.369 19.2052C100.784 18.8603 100.306 18.3587 99.9364 17.7003C99.5819 17.0262 99.405 16.2425 99.405 15.3489C99.405 14.4554 99.5819 13.6794 99.9364 13.021C100.306 12.3626 100.784 11.861 101.369 11.5161C101.97 11.1712 102.601 10.9988 103.263 10.9988C103.941 10.9988 104.572 11.1712 105.158 11.5161C105.758 11.8453 106.236 12.3391 106.589 12.9975Z" fill="white"/>
<path d="M116.241 22.0505C115.24 22.0505 114.339 21.8702 113.538 21.5096C112.753 21.1334 112.129 20.6318 111.667 20.0047C111.205 19.362 110.958 18.6487 110.928 17.8649H113.654C113.7 18.4136 113.954 18.876 114.416 19.2523C114.894 19.6128 115.487 19.7931 116.195 19.7931C116.934 19.7931 117.504 19.652 117.905 19.3698C118.32 19.072 118.528 18.6958 118.528 18.2412C118.528 17.7552 118.297 17.3946 117.835 17.1595C117.389 16.9244 116.672 16.6657 115.687 16.3835C114.732 16.117 113.954 15.8584 113.353 15.6076C112.753 15.3567 112.229 14.9727 111.782 14.4554C111.351 13.9381 111.136 13.2561 111.136 12.4096C111.136 11.7198 111.336 11.0928 111.736 10.5285C112.137 9.94844 112.707 9.49385 113.446 9.16469C114.201 8.83548 115.063 8.6709 116.033 8.6709C117.481 8.6709 118.643 9.04709 119.521 9.79955C120.415 10.5363 120.892 11.5474 120.954 12.8329H118.32C118.274 12.2528 118.043 11.7904 117.627 11.4456C117.211 11.1007 116.649 10.9283 115.941 10.9283C115.248 10.9283 114.717 11.0615 114.347 11.328C113.977 11.5945 113.792 11.9472 113.792 12.3861C113.792 12.731 113.916 13.021 114.162 13.2561C114.409 13.4913 114.709 13.6794 115.063 13.8205C115.417 13.9459 115.941 14.1105 116.634 14.3143C117.558 14.5651 118.313 14.8237 118.898 15.0902C119.499 15.3411 120.014 15.7173 120.446 16.219C120.877 16.7206 121.1 17.3868 121.115 18.2177C121.115 18.9544 120.915 19.6128 120.515 20.1928C120.114 20.7729 119.545 21.2275 118.805 21.5566C118.082 21.8858 117.227 22.0505 116.241 22.0505Z" fill="white"/>
<path d="M155.435 9.30575C154.649 8.88252 153.756 8.6709 152.755 8.6709C151.816 8.6709 150.937 8.90604 150.121 9.37631C149.305 9.83091 148.705 10.4501 148.32 11.2339C147.888 10.4031 147.272 9.76819 146.471 9.32927C145.67 8.89036 144.762 8.6709 143.745 8.6709C142.99 8.6709 142.282 8.8198 141.62 9.11765C140.958 9.41551 140.411 9.83091 139.98 10.3639V8.88252H137.346V21.8388H139.98V14.5964C139.98 13.4364 140.265 12.5507 140.835 11.9394C141.42 11.3123 142.205 10.9988 143.191 10.9988C144.176 10.9988 144.954 11.3123 145.524 11.9394C146.094 12.5507 146.379 13.4364 146.379 14.5964V21.8388H148.99V14.5964C148.99 13.4364 149.274 12.5507 149.844 11.9394C150.429 11.3123 151.215 10.9988 152.201 10.9988C153.186 10.9988 153.964 11.3123 154.534 11.9394C155.104 12.5507 155.389 13.4364 155.389 14.5964V21.8388H157.999V14.1967C157.999 13.021 157.768 12.0177 157.306 11.1869C156.86 10.3561 156.236 9.72899 155.435 9.30575Z" fill="white"/>
<path d="M134.681 21.8391V8.88281H132.047V16.1016C132.047 17.2617 131.755 18.1552 131.17 18.7822C130.599 19.3936 129.822 19.6993 128.836 19.6993C127.85 19.6993 127.073 19.3936 126.503 18.7822C125.933 18.1552 125.648 17.2617 125.648 16.1016V8.88281H123.037V16.5014C123.037 17.6771 123.261 18.6804 123.708 19.5112C124.169 20.342 124.793 20.9691 125.579 21.3923C126.38 21.8156 127.281 22.0273 128.282 22.0273C129.036 22.0273 129.744 21.8783 130.407 21.5804C131.085 21.267 131.631 20.8437 132.047 20.3107V21.8391H134.681Z" fill="white"/>
<path fill-rule="evenodd" clip-rule="evenodd" d="M79.8295 21.2275C80.8 21.7761 81.8859 22.0505 83.0871 22.0505C84.3041 22.0505 85.4125 21.7761 86.4136 21.2275C87.4305 20.6631 88.2309 19.8715 88.8165 18.8525C89.4016 17.8336 89.6944 16.6657 89.6944 15.3489C89.6944 14.0321 89.4095 12.8642 88.8397 11.8453C88.27 10.8263 87.4921 10.0425 86.5063 9.49385C85.5205 8.94517 84.4194 8.6709 83.2024 8.6709C81.9859 8.6709 80.8848 8.94517 79.899 9.49385C78.9132 10.0425 78.1354 10.8263 77.5656 11.8453C76.9958 12.8642 76.7109 14.0321 76.7109 15.3489C76.7109 16.6814 76.9879 17.8571 77.5424 18.876C78.0969 19.8793 78.8595 20.6631 79.8295 21.2275ZM84.9812 19.2288C84.3962 19.5579 83.7648 19.7226 83.0871 19.7226C82.0244 19.7226 81.1386 19.3463 80.4303 18.5938C79.7373 17.8257 79.3908 16.7441 79.3908 15.3489C79.3908 14.4083 79.5604 13.6167 79.899 12.9739C80.2376 12.3156 80.692 11.8218 81.2618 11.4926C81.8475 11.1634 82.4788 10.9988 83.1566 10.9988C83.8344 10.9988 84.4658 11.1634 85.0508 11.4926C85.6358 11.8218 86.1055 12.3156 86.46 12.9739C86.8144 13.6167 86.9913 14.4083 86.9913 15.3489C86.9913 16.2894 86.8065 17.0889 86.4368 17.7474C86.0671 18.4058 85.5821 18.8995 84.9812 19.2288Z" fill="white"/>
<path fill-rule="evenodd" clip-rule="evenodd" d="M65.9593 21.2574C65.9416 21.2475 65.9239 21.2375 65.9062 21.2275C64.9357 20.6631 64.1731 19.8793 63.6186 18.876C63.0647 17.8571 62.7871 16.6814 62.7871 15.3489C62.7871 14.0321 63.072 12.8642 63.6418 11.8453C64.2115 10.8263 64.9893 10.0425 65.9752 9.49385C66.961 8.94517 68.0621 8.6709 69.2791 8.6709C70.4956 8.6709 71.5967 8.94517 72.5825 9.49385C73.5683 10.0425 74.3461 10.8263 74.9159 11.8453C75.4857 12.8642 75.7706 14.0321 75.7706 15.3489C75.7706 16.6657 75.4777 17.8336 74.8927 18.8525C74.3077 19.8715 73.5067 20.6631 72.4898 21.2275C71.629 21.6993 70.6883 21.9682 69.6683 22.0343C70.9183 22.6166 72.8204 23.0867 73.888 23.3506C74.3449 23.4635 74.6493 23.5388 74.6847 23.5688L74.6865 23.5692V26.2517H65.0912V23.5692H70.6206C69.2139 23.2459 67.3038 22.1845 65.9593 21.2574ZM69.1632 19.7226C69.841 19.7226 70.4724 19.5579 71.058 19.2288C71.6583 18.8995 72.1433 18.4058 72.513 17.7474C72.8826 17.0889 73.0675 16.2895 73.0675 15.3489C73.0675 14.4083 72.8906 13.6167 72.5361 12.9739C72.1823 12.3156 71.712 11.8218 71.1269 11.4926C70.5419 11.1634 69.9105 10.9988 69.2328 10.9988C68.555 10.9988 67.9236 11.1634 67.338 11.4926C66.7682 11.8218 66.3144 12.3156 65.9752 12.9739C65.6366 13.6167 65.467 14.4083 65.467 15.3489C65.467 16.7441 65.8135 17.8257 66.5065 18.5939C67.2154 19.3463 68.1005 19.7226 69.1632 19.7226Z" fill="white"/>
<path fill-rule="evenodd" clip-rule="evenodd" d="M51.984 21.2275C52.9543 21.7761 54.0401 22.0505 55.2414 22.0505C56.4581 22.0505 57.5669 21.7761 58.568 21.2275C59.5845 20.6631 60.3854 19.8715 60.9707 18.8525C61.5557 17.8336 61.8485 16.6657 61.8485 15.3489C61.8485 14.0321 61.5636 12.8642 60.9937 11.8453C60.4239 10.8263 59.6461 10.0425 58.6604 9.49385C57.6747 8.94517 56.5736 8.6709 55.3568 8.6709C54.1402 8.6709 53.0389 8.94517 52.0533 9.49385C51.0676 10.0425 50.2898 10.8263 49.72 11.8453C49.1501 12.8642 48.8652 14.0321 48.8652 15.3489C48.8652 16.6814 49.1424 17.8571 49.6969 18.876C50.2513 19.8793 51.0137 20.6631 51.984 21.2275ZM57.1357 19.2288C56.5504 19.5579 55.919 19.7226 55.2414 19.7226C54.1787 19.7226 53.2931 19.3463 52.5846 18.5938C51.8916 17.8257 51.545 16.7441 51.545 15.3489C51.545 14.4083 51.7144 13.6167 52.0533 12.9739C52.3921 12.3156 52.8465 11.8218 53.4163 11.4926C54.0016 11.1634 54.633 10.9988 55.3107 10.9988C55.9883 10.9988 56.6198 11.1634 57.205 11.4926C57.7903 11.8218 58.26 12.3156 58.6143 12.9739C58.9684 13.6167 59.1456 14.4083 59.1456 15.3489C59.1456 16.2894 58.9608 17.0889 58.5911 17.7474C58.2215 18.4058 57.7364 18.8995 57.1357 19.2288Z" fill="white"/>
<path d="M42.8953 19.6762H48.3243V21.8394H40.2617V5.49707H42.8953V19.6762Z" fill="white"/>
</g>
<defs>
<clipPath id="clip0_271_346">
<rect width="158" height="28" fill="white"/>
</clipPath>
</defs>
</svg>
