<svg width="46" height="32" viewBox="0 0 46 32" fill="none" xmlns="http://www.w3.org/2000/svg">
<g clip-path="url(#clip0_153_23)">
<path fill-rule="evenodd" clip-rule="evenodd" d="M19.5599 0C23.4361 0.000126046 26.5785 3.09965 26.5786 6.92179C26.5786 7.13493 26.5687 7.34718 26.555 7.55862H32.467C38.2174 7.55862 40.4754 14.9126 35.6908 18.0578L29.4345 22.1698C28.0878 23.0554 28.4569 25.0994 30.0312 25.472C30.5458 25.5937 31.0894 25.4926 31.5239 25.1947L35.1537 22.5542C35.2914 22.454 35.4576 22.4 35.6282 22.4H45.5973C45.9898 22.4 46.1496 22.9025 45.8285 23.1272L35.2759 30.5118C33.3024 31.8655 30.8355 32.3238 28.4979 31.7706C21.3492 30.0789 19.6738 20.8012 25.7905 16.7799L29.9649 14.0366H23.559H19.4594C18.2822 14.0366 17.171 13.7541 16.1929 13.2553C17.2352 13.9628 19.8121 14.7502 21.9861 14.9001C22.1798 14.9001 22.4944 15.0708 22.1197 15.4546L8.95826 28.5654C8.80741 28.7156 8.60279 28.8 8.38945 28.8H0.402805C0.0446089 28.8 -0.134726 28.369 0.118628 28.117L15.4829 12.8378C13.5897 11.5767 12.3448 9.44104 12.3446 7.01879C12.3446 3.143 15.5309 0 19.4616 0H19.5599ZM19.7022 5.39932C18.7951 5.39932 18.0598 5.8827 18.0598 6.47897C18.0602 6.97055 18.5605 7.38407 19.2445 7.51434C19.311 7.54278 19.3845 7.55862 19.4616 7.55862H19.9492C19.95 7.5538 19.9493 7.54869 19.9502 7.54386C20.7393 7.46522 21.3442 7.01953 21.3446 6.47897C21.3446 5.8827 20.6092 5.39932 19.7022 5.39932Z" fill="#71717A"/>
</g>
<defs>
<clipPath id="clip0_153_23">
<rect width="46" height="32" fill="white"/>
</clipPath>
</defs>
</svg>
