<svg width="167" height="32" viewBox="0 0 167 32" fill="none" xmlns="http://www.w3.org/2000/svg">
<g clip-path="url(#clip0_153_46)">
<path d="M77.3905 3.20126C77.1325 5.03533 78.322 6.40254 80.1753 6.40254C82.0291 6.40254 83.6032 5.03533 83.8613 3.20126C84.1194 1.36721 82.9296 0 81.0758 0C79.2225 0 77.6485 1.36721 77.3905 3.20126Z" fill="#71717A"/>
<path d="M77.4374 7.90332L75.8477 19.206L80.93 19.0114L82.4922 7.90332H77.4374Z" fill="#71717A"/>
<path fill-rule="evenodd" clip-rule="evenodd" d="M64.0883 24.8099C68.0976 24.8099 71.5054 22.6766 73.2093 19.4453L75.7992 19.5511L75.1206 24.3762H80.1759L80.8255 19.7565L83.5055 19.866L81.881 31.4125H86.9366L88.1791 22.5757C89.0173 24.0429 90.5946 24.8099 92.5834 24.8099C95.2714 24.8099 98.4276 23.423 100.314 20.5528L102.25 20.6319C102.58 23.1255 104.905 24.8099 108.595 24.8099C112.874 24.8099 116.024 22.5424 116.503 19.141C117.052 15.2395 113.467 14.6059 111.121 14.2725L110.917 14.2412C109.498 14.0251 108.416 13.8602 108.55 12.9052C108.644 12.2383 109.239 11.6047 110.485 11.6047C111.497 11.6047 112.11 12.0382 112.137 12.8052H117.057C117.373 9.83735 115.145 7.46974 111 7.46974C106.854 7.46974 103.864 9.80399 103.394 13.1386C102.837 17.1069 106.532 17.6737 108.776 18.0073L108.9 18.0261L109.072 18.0521L109.074 18.0523C110.447 18.2584 111.482 18.4138 111.338 19.4412C111.239 20.1414 110.659 20.6749 109.108 20.6749C107.727 20.6749 107.148 20.2415 107.235 19.3745L71.459 19.3737L73.2825 19.304C73.7734 18.3356 74.1129 17.2719 74.2722 16.1398C74.9756 11.1378 71.7845 7.46974 66.5273 7.46974C66.4458 7.46974 66.3646 7.47062 66.2836 7.47237L66.2997 7.46159L50.3631 7.4616C50.1347 7.46007 49.918 7.46006 49.7148 7.4616H50.3631C54.4556 7.48917 62.2547 8.00783 61.2513 8.85279C58.631 10.3607 56.7872 12.9849 56.3435 16.1398C55.6399 21.1418 58.831 24.8099 64.0883 24.8099ZM64.7449 20.1414C67.0366 20.1414 68.8166 18.5074 69.1497 16.1398C69.4827 13.7722 68.1623 12.1382 65.8706 12.1382C63.579 12.1382 61.7989 13.7722 61.4659 16.1398C61.1329 18.5074 62.4533 20.1414 64.7449 20.1414Z" fill="#71717A"/>
<path d="M96.7681 16.1398C96.6443 17.0249 96.3174 17.8073 95.8372 18.4403L101.429 18.2261C101.621 17.638 101.769 17.0094 101.863 16.3399C102.608 11.0378 99.4033 7.46973 94.1121 7.46973C89.0238 7.46973 84.7849 10.771 84.0058 16.3065L83.6406 18.9073L89.4984 18.683C89.0989 18.0121 88.9439 17.1417 89.0845 16.1398C89.4177 13.7722 91.198 12.1382 93.4896 12.1382C95.7813 12.1382 97.1013 13.7722 96.7681 16.1398Z" fill="#71717A"/>
<path d="M136.201 21.8447L137.149 15.1061C137.895 9.80397 141.324 7.46973 145.368 7.46973C147.726 7.46973 149.588 8.37005 150.591 10.1041C152.082 8.37005 154.163 7.46973 156.556 7.46973C160.601 7.46973 163.372 9.80397 162.627 15.1061L161.323 24.3765H156.267L157.571 15.1061C157.881 12.9052 156.911 12.1382 155.394 12.1382C153.911 12.1382 152.725 12.9052 152.415 15.1061L151.111 24.3765H146.056L147.36 15.1061C147.67 12.9052 146.7 12.1382 145.217 12.1382C143.7 12.1382 142.513 12.9052 142.204 15.1061L140.9 24.3765H137.871L137.872 24.3784H130.789C133.728 24.0808 135.986 23.277 136.196 21.8376L136.201 21.8447Z" fill="#71717A"/>
<path d="M125.416 24.81C120.496 24.81 117.587 22.0089 118.371 16.44L119.256 10.1487C119.397 8.52356 118.116 8.32052 115.291 7.91333H119.57L119.571 7.90332H124.627L123.426 16.44C123.06 19.0411 124.186 20.1415 126.073 20.1415C127.961 20.1415 129.396 19.0411 129.762 16.44L130.963 7.90332H136.017L134.816 16.44C134.038 21.9756 130.337 24.81 125.416 24.81Z" fill="#71717A"/>
<path d="M39.3274 22.4267C38.9701 22.0361 38.6617 21.604 38.4061 21.1352L34.7969 20.9388C32.9301 23.3177 29.9976 24.8099 26.6443 24.8099C21.387 24.8099 18.1959 21.1418 18.8994 16.1398C19.603 11.1378 23.8259 7.46973 29.0833 7.46973C34.3406 7.46973 37.5317 11.1378 36.8281 16.1398C36.6673 17.2832 36.3226 18.3569 35.8237 19.3329L29.3217 19.6645C30.5877 19.0148 31.4797 17.7461 31.7056 16.1398C32.0387 13.7722 30.7183 12.1382 28.4266 12.1382C26.135 12.1382 24.3549 13.7722 24.022 16.1398C23.7727 17.9121 24.4499 19.2734 25.7675 19.8458L20.0624 20.1369H46.1478V20.1398C48.3792 20.0817 50.101 18.4644 50.428 16.1398C50.761 13.7722 49.4406 12.1382 47.1489 12.1382C44.8573 12.1382 43.0773 13.7722 42.7443 16.1398C42.5839 17.2801 42.8071 18.2503 43.3375 18.9497L37.7065 19.2369C37.5011 18.2865 37.4663 17.2458 37.6217 16.1398C38.3253 11.1378 42.5482 7.46973 47.8055 7.46973C53.0629 7.46973 56.254 11.1378 55.5504 16.1398C54.8708 20.9715 50.9074 24.5586 45.9 24.7973C47.0793 25.4605 48.7922 25.9969 50.0513 26.3911C50.4713 26.5227 50.8409 26.6384 51.1232 26.7377C52.2666 27.0201 52.9972 28.0743 52.8204 29.3317C52.6131 30.8053 51.2378 31.9999 49.7486 31.9999H41.6588C39.0145 31.9999 37.0795 30.1168 36.9687 27.6318L26.9908 26.6646H37.0161L37.0163 26.6634H45.643C43.6705 25.9086 41.5862 24.3985 40.2461 23.2591C39.912 23.0085 39.6056 22.7307 39.3285 22.4279L39.3274 22.4267Z" fill="#71717A"/>
<path d="M0 2.56792L4.12929 3.22456L1.15427 24.3765H17.0272L17.7308 19.3745H7.31729L9.68113 2.56787L0 2.56792Z" fill="#71717A"/>
<path d="M167.001 6.30158C167.001 7.36451 166.138 8.22622 165.074 8.22622C164.011 8.22622 163.148 7.36451 163.148 6.30158C163.148 5.23863 164.011 4.37695 165.074 4.37695C166.138 4.37695 167.001 5.23863 167.001 6.30158Z" fill="#71717A"/>
</g>
<defs>
<clipPath id="clip0_153_46">
<rect width="167" height="32" fill="white"/>
</clipPath>
</defs>
</svg>
