<svg width="47" height="32" viewBox="0 0 47 32" fill="none" xmlns="http://www.w3.org/2000/svg">
<path d="M23.5 29.8667C21.2022 31.2267 18.5128 32 15.6667 32C7.02389 32 0 24.8267 0 16C0 7.17333 7.02389 0 15.6667 0C18.5128 0 21.2022 0.773333 23.5 2.13333C18.8261 4.90667 15.6667 10.08 15.6667 16C15.6667 21.9467 18.8261 27.0933 23.5 29.8667Z" fill="url(#paint0_linear_249_858)"/>
<path d="M23.5 29.8667C25.7978 31.2267 28.4872 32 31.3333 32C39.9761 32 47 24.8267 47 16C47 7.17333 39.9761 0 31.3333 0C28.4872 0 25.7978 0.773333 23.5 2.13333C28.1739 4.90667 31.3333 10.08 31.3333 16C31.3333 21.9467 28.1739 27.0933 23.5 29.8667Z" fill="url(#paint1_linear_249_858)"/>
<defs>
<linearGradient id="paint0_linear_249_858" x1="24.1953" y1="-2.08696" x2="40.4698" y2="24.1466" gradientUnits="userSpaceOnUse">
<stop stop-color="white" stop-opacity="0.8"/>
<stop offset="1" stop-color="white"/>
</linearGradient>
<linearGradient id="paint1_linear_249_858" x1="24.1953" y1="-2.08696" x2="40.4698" y2="24.1466" gradientUnits="userSpaceOnUse">
<stop stop-color="white" stop-opacity="0.8"/>
<stop offset="1" stop-color="white"/>
</linearGradient>
</defs>
</svg>
