<svg width="121" height="30" viewBox="0 0 121 30" fill="none" xmlns="http://www.w3.org/2000/svg">
<path d="M44.5399 6H48.0894L54.5188 23.6842H51.2473L50.1104 20.5516H42.5315L41.3946 23.6842H38.123L44.5399 6ZM43.6557 17.4695H48.9736L46.3083 10.1811L43.6557 17.4695Z" fill="url(#paint0_linear_126_133)"/>
<path d="M65.1473 11.0526H68.2294V23.9242C68.2294 24.8337 68.0442 25.6589 67.6736 26.4C67.3031 27.1495 66.7978 27.7895 66.1578 28.32C65.5178 28.8589 64.7852 29.2716 63.96 29.5579C63.1347 29.8526 62.2673 30 61.3578 30C60.4736 30 59.6231 29.8189 58.8063 29.4568C57.9894 29.0947 57.2652 28.5979 56.6336 27.9663C56.0105 27.3432 55.5347 26.6316 55.2063 25.8316L58.0231 24.5558C58.1915 25.0189 58.4442 25.4232 58.781 25.7684C59.1263 26.1221 59.5221 26.3958 59.9684 26.5895C60.4147 26.7916 60.8778 26.8926 61.3578 26.8926C61.8463 26.8926 62.3136 26.8253 62.76 26.6905C63.2147 26.5558 63.6231 26.3579 63.9852 26.0968C64.3473 25.8442 64.6294 25.5326 64.8315 25.1621C65.0421 24.8 65.1473 24.3874 65.1473 23.9242V22.1432C64.7515 22.6989 64.2547 23.1495 63.6568 23.4947C63.0589 23.84 62.3684 24.0126 61.5852 24.0126C60.6757 24.0126 59.8252 23.84 59.0336 23.4947C58.2421 23.1495 57.5431 22.6737 56.9368 22.0674C56.3389 21.4526 55.8673 20.7453 55.5221 19.9453C55.1852 19.1453 55.0168 18.2863 55.0168 17.3684C55.0168 16.4505 55.1852 15.5916 55.5221 14.7916C55.8673 13.9916 56.3389 13.2884 56.9368 12.6821C57.5431 12.0674 58.2421 11.5874 59.0336 11.2421C59.8252 10.8968 60.6757 10.7242 61.5852 10.7242C62.3684 10.7242 63.0589 10.8968 63.6568 11.2421C64.2547 11.5789 64.7515 12.0253 65.1473 12.5811V11.0526ZM61.6231 21.0442C62.2715 21.0442 62.8442 20.88 63.341 20.5516C63.8463 20.2147 64.2421 19.7684 64.5284 19.2126C64.8147 18.6484 64.9578 18.0337 64.9578 17.3684C64.9578 16.6947 64.8105 16.08 64.5157 15.5242C64.2294 14.9684 63.8336 14.5221 63.3284 14.1853C62.8315 13.8484 62.2631 13.68 61.6231 13.68C60.9915 13.68 60.4147 13.8484 59.8926 14.1853C59.3705 14.5137 58.9536 14.9558 58.6421 15.5116C58.3305 16.0674 58.1747 16.6863 58.1747 17.3684C58.1747 18.0505 58.3305 18.6695 58.6421 19.2253C58.9536 19.7811 59.3705 20.2232 59.8926 20.5516C60.4147 20.88 60.9915 21.0442 61.6231 21.0442Z" fill="url(#paint1_linear_126_133)"/>
<path d="M76.53 24.0126C75.3678 24.0126 74.3068 23.7137 73.3468 23.1158C72.3952 22.5179 71.6331 21.7137 71.0605 20.7032C70.4963 19.6926 70.2142 18.5768 70.2142 17.3558C70.2142 16.4379 70.3784 15.5789 70.7068 14.7789C71.0352 13.9705 71.4857 13.2632 72.0584 12.6568C72.6394 12.0421 73.3131 11.5621 74.0794 11.2168C74.8457 10.8716 75.6626 10.6989 76.53 10.6989C77.5152 10.6989 78.4163 10.9095 79.2331 11.3305C80.0584 11.7432 80.7573 12.3116 81.33 13.0358C81.9026 13.76 82.3194 14.5853 82.5805 15.5116C82.8415 16.4379 82.9005 17.4063 82.7573 18.4168H73.5236C73.6415 18.8884 73.8352 19.3137 74.1047 19.6926C74.3742 20.0632 74.7152 20.3621 75.1278 20.5895C75.5405 20.8084 76.0078 20.9221 76.53 20.9305C77.0689 20.9389 77.5573 20.8126 77.9952 20.5516C78.4415 20.2821 78.8121 19.92 79.1068 19.4653L82.2521 20.1979C81.7384 21.3179 80.9721 22.2358 79.9531 22.9516C78.9342 23.6589 77.7931 24.0126 76.53 24.0126ZM73.4226 16.1053H79.6373C79.5447 15.6 79.3468 15.1453 79.0436 14.7411C78.7489 14.3284 78.3826 14 77.9447 13.7558C77.5068 13.5116 77.0352 13.3895 76.53 13.3895C76.0247 13.3895 75.5573 13.5116 75.1278 13.7558C74.6984 13.9916 74.3321 14.3158 74.0289 14.7284C73.7342 15.1326 73.5321 15.5916 73.4226 16.1053Z" fill="url(#paint2_linear_126_133)"/>
<path d="M96.383 15.7011V23.6842H93.3009V16.5095C93.3009 16.0126 93.1788 15.5621 92.9346 15.1579C92.6904 14.7453 92.362 14.4211 91.9494 14.1853C91.5451 13.9411 91.0946 13.8189 90.5978 13.8189C90.1009 13.8189 89.6462 13.9411 89.2336 14.1853C88.8294 14.4211 88.5051 14.7453 88.2609 15.1579C88.0251 15.5621 87.9073 16.0126 87.9073 16.5095V23.6842H84.8251L84.8125 11.0526H87.8946L87.9073 12.1768C88.3367 11.7221 88.8504 11.3642 89.4483 11.1032C90.0462 10.8337 90.6904 10.6989 91.3809 10.6989C92.2988 10.6989 93.1367 10.9263 93.8946 11.3811C94.6525 11.8274 95.2546 12.4295 95.7009 13.1874C96.1557 13.9368 96.383 14.7747 96.383 15.7011Z" fill="url(#paint3_linear_126_133)"/>
<path d="M104.811 6H108.361L114.79 23.6842H111.519L110.382 20.5516H102.803L101.666 23.6842H98.3944L104.811 6ZM103.927 17.4695H109.245L106.58 10.1811L103.927 17.4695Z" fill="url(#paint4_linear_126_133)"/>
<path d="M117.288 23.6842V6H120.371V23.6842H117.288Z" fill="url(#paint5_linear_126_133)"/>
<path d="M15.623 24.6C14.1075 25.4925 12.3336 26 10.4564 26C4.75583 26 0.123047 21.2925 0.123047 15.5C0.123047 9.7075 4.75583 5 10.4564 5C12.3336 5 14.1075 5.5075 15.623 6.4C12.5403 8.22 10.4564 11.615 10.4564 15.5C10.4564 19.4025 12.5403 22.78 15.623 24.6Z" fill="url(#paint6_linear_126_133)"/>
<path d="M15.623 24.6C14.1075 25.4925 12.3336 26 10.4564 26C4.75583 26 0.123047 21.2925 0.123047 15.5C0.123047 9.7075 4.75583 5 10.4564 5C12.3336 5 14.1075 5.5075 15.623 6.4C12.5403 8.22 10.4564 11.615 10.4564 15.5C10.4564 19.4025 12.5403 22.78 15.623 24.6Z" fill="url(#paint7_radial_126_133)" fill-opacity="0.2"/>
<path d="M15.623 24.6C17.1386 25.4925 18.9125 26 20.7897 26C26.4903 26 31.123 21.2925 31.123 15.5C31.123 9.7075 26.4903 5 20.7897 5C18.9125 5 17.1386 5.5075 15.623 6.4C18.7058 8.22 20.7897 11.615 20.7897 15.5C20.7897 19.4025 18.7058 22.78 15.623 24.6Z" fill="url(#paint8_linear_126_133)"/>
<path d="M15.623 24.6C17.1386 25.4925 18.9125 26 20.7897 26C26.4903 26 31.123 21.2925 31.123 15.5C31.123 9.7075 26.4903 5 20.7897 5C18.9125 5 17.1386 5.5075 15.623 6.4C18.7058 8.22 20.7897 11.615 20.7897 15.5C20.7897 19.4025 18.7058 22.78 15.623 24.6Z" fill="url(#paint9_radial_126_133)" fill-opacity="0.2"/>
<defs>
<linearGradient id="paint0_linear_126_133" x1="80.956" y1="-2.19682" x2="90.9929" y2="28.8765" gradientUnits="userSpaceOnUse">
<stop stop-color="#555D64"/>
<stop offset="1" stop-color="#292C2E"/>
</linearGradient>
<linearGradient id="paint1_linear_126_133" x1="80.956" y1="-2.19682" x2="90.9929" y2="28.8765" gradientUnits="userSpaceOnUse">
<stop stop-color="#555D64"/>
<stop offset="1" stop-color="#292C2E"/>
</linearGradient>
<linearGradient id="paint2_linear_126_133" x1="80.956" y1="-2.19682" x2="90.9929" y2="28.8765" gradientUnits="userSpaceOnUse">
<stop stop-color="#555D64"/>
<stop offset="1" stop-color="#292C2E"/>
</linearGradient>
<linearGradient id="paint3_linear_126_133" x1="80.956" y1="-2.19682" x2="90.9929" y2="28.8765" gradientUnits="userSpaceOnUse">
<stop stop-color="#555D64"/>
<stop offset="1" stop-color="#292C2E"/>
</linearGradient>
<linearGradient id="paint4_linear_126_133" x1="80.956" y1="-2.19682" x2="90.9929" y2="28.8765" gradientUnits="userSpaceOnUse">
<stop stop-color="#555D64"/>
<stop offset="1" stop-color="#292C2E"/>
</linearGradient>
<linearGradient id="paint5_linear_126_133" x1="80.956" y1="-2.19682" x2="90.9929" y2="28.8765" gradientUnits="userSpaceOnUse">
<stop stop-color="#555D64"/>
<stop offset="1" stop-color="#292C2E"/>
</linearGradient>
<linearGradient id="paint6_linear_126_133" x1="16.0816" y1="3.63043" x2="26.7377" y2="20.8945" gradientUnits="userSpaceOnUse">
<stop stop-color="#555D64"/>
<stop offset="1" stop-color="#292C2E"/>
</linearGradient>
<radialGradient id="paint7_radial_126_133" cx="0" cy="0" r="1" gradientTransform="matrix(19.3945 11.375 -0.976945 13.1382 8.84666 2.8125)" gradientUnits="userSpaceOnUse">
<stop stop-color="white"/>
<stop offset="1" stop-color="white" stop-opacity="0"/>
</radialGradient>
<linearGradient id="paint8_linear_126_133" x1="16.0816" y1="3.63043" x2="26.7377" y2="20.8945" gradientUnits="userSpaceOnUse">
<stop stop-color="#555D64"/>
<stop offset="1" stop-color="#292C2E"/>
</linearGradient>
<radialGradient id="paint9_radial_126_133" cx="0" cy="0" r="1" gradientTransform="matrix(19.3945 11.375 -0.976945 13.1382 8.84666 2.8125)" gradientUnits="userSpaceOnUse">
<stop stop-color="white"/>
<stop offset="1" stop-color="white" stop-opacity="0"/>
</radialGradient>
</defs>
</svg>
