<svg width="115" height="115" viewBox="0 0 115 115" fill="none" xmlns="http://www.w3.org/2000/svg">
<g filter="url(#filter0_d_2205_415)">
<rect x="24.2031" y="24.7686" width="64" height="64" rx="8" transform="rotate(-15 24.2031 24.7686)" fill="white"/>
<g clip-path="url(#clip0_2205_415)">
<path fill-rule="evenodd" clip-rule="evenodd" d="M57.1439 34.674C60.4562 33.7866 63.8449 35.6929 64.7126 38.9308C64.761 39.1113 64.8007 39.2934 64.837 39.4757L69.8888 38.122C74.8026 36.8054 78.4014 42.5182 75.0269 46.2782L70.6142 51.1941C69.6644 52.2528 70.4439 53.8998 71.8736 53.855C72.341 53.8402 72.7826 53.6301 73.0862 53.2783L75.5885 50.2103C75.6835 50.0939 75.8132 50.0101 75.959 49.971L84.4777 47.6884C84.8132 47.5985 85.0637 47.9876 84.8404 48.2515L77.4993 56.9235C76.1202 58.5222 74.1163 59.4753 71.9931 59.5419C65.5005 59.7455 61.9629 52.2696 66.2769 47.4625L69.2212 44.1827L63.7473 45.6494L60.2442 46.5881C59.2383 46.8576 58.2246 46.8727 57.2755 46.6741C58.3269 47.0348 60.7076 47.1118 62.5993 46.7411C62.7648 46.6967 63.0724 46.7693 62.8393 47.1803L54.5687 61.3005C54.4739 61.4623 54.3182 61.5806 54.1359 61.6295L47.3113 63.4582C47.0052 63.5402 46.7541 63.2161 46.9134 62.9447L56.5741 46.483C54.6701 45.8482 53.1215 44.324 52.5715 42.272C51.6917 38.9887 53.7011 35.5965 57.0598 34.6966L57.1439 34.674ZM58.4911 39.2155C57.7159 39.4232 57.1973 40.001 57.3326 40.5061C57.4446 40.9225 57.966 41.1582 58.58 41.112C58.6434 41.1208 58.7097 41.1175 58.7756 41.0998L59.1922 40.9882C59.1919 40.9839 59.1901 40.9797 59.1898 40.9754C59.8462 40.7281 60.2619 40.2121 60.1395 39.754C60.0042 39.2489 59.2661 39.0078 58.4911 39.2155Z" fill="url(#paint0_linear_2205_415)"/>
</g>
</g>
<defs>
<filter id="filter0_d_2205_415" x="-1.79687" y="-1.7959" width="118.383" height="118.384" filterUnits="userSpaceOnUse" color-interpolation-filters="sRGB">
<feFlood flood-opacity="0" result="BackgroundImageFix"/>
<feColorMatrix in="SourceAlpha" type="matrix" values="0 0 0 0 0 0 0 0 0 0 0 0 0 0 0 0 0 0 127 0" result="hardAlpha"/>
<feOffset dx="-6" dy="10"/>
<feGaussianBlur stdDeviation="10"/>
<feComposite in2="hardAlpha" operator="out"/>
<feColorMatrix type="matrix" values="0 0 0 0 0 0 0 0 0 0 0 0 0 0 0 0 0 0 0.1 0"/>
<feBlend mode="normal" in2="BackgroundImageFix" result="effect1_dropShadow_2205_415"/>
<feBlend mode="normal" in="SourceGraphic" in2="effect1_dropShadow_2205_415" result="shape"/>
</filter>
<linearGradient id="paint0_linear_2205_415" x1="60.0835" y1="33.8864" x2="67.3472" y2="60.995" gradientUnits="userSpaceOnUse">
<stop stop-color="#FF6A5A"/>
<stop offset="1" stop-color="#FD3A25"/>
</linearGradient>
<clipPath id="clip0_2205_415">
<rect width="40.6942" height="28.0649" fill="white" transform="translate(40.4297 39.1526) rotate(-15)"/>
</clipPath>
</defs>
</svg>
