<svg width="115" height="115" viewBox="0 0 115 115" fill="none" xmlns="http://www.w3.org/2000/svg">
<g filter="url(#filter0_d_2054_609)">
<rect x="24.2031" y="24.7686" width="64" height="64" rx="8" transform="rotate(-15 24.2031 24.7686)" fill="white"/>
<g clip-path="url(#clip0_2054_609)">
<path d="M45.7141 46.8562C44.0555 40.6663 47.7288 34.3039 53.9187 32.6453L74.2492 27.1978C74.9689 27.0049 75.7088 27.4321 75.9016 28.1518L77.0191 32.3222C77.2119 33.0419 76.7848 33.7817 76.065 33.9746L55.7346 39.4221C53.2874 40.0778 51.8352 42.5932 52.4909 45.0404L56.4718 59.8973L57.7923 59.5434C58.9242 59.2401 59.8971 58.5152 60.5114 57.5173L71.5607 41.026C71.8188 40.6408 72.4103 40.7389 72.5303 41.1867L74.6244 49.0017C74.729 49.3921 74.653 49.8088 74.4175 50.1372L66.4861 61.1951C64.9322 63.7192 62.4712 65.5531 59.6081 66.3202L52.814 68.1407C52.0943 68.3336 51.3544 67.9064 51.1616 67.1867L45.7141 46.8562Z" fill="url(#paint0_linear_2054_609)"/>
<path d="M75.2173 55.201C75.3992 54.9413 75.6668 54.754 75.9731 54.6719L81.2332 53.2625C81.9529 53.0696 82.6928 53.4967 82.8856 54.2165L84.0031 58.3868C84.1959 59.1066 83.7688 59.8464 83.049 60.0393L69.9511 63.5488C69.7078 63.614 69.5157 63.3397 69.6603 63.1334L75.2173 55.201Z" fill="url(#paint1_linear_2054_609)"/>
</g>
</g>
<defs>
<filter id="filter0_d_2054_609" x="-1.79688" y="-1.7959" width="118.383" height="118.384" filterUnits="userSpaceOnUse" color-interpolation-filters="sRGB">
<feFlood flood-opacity="0" result="BackgroundImageFix"/>
<feColorMatrix in="SourceAlpha" type="matrix" values="0 0 0 0 0 0 0 0 0 0 0 0 0 0 0 0 0 0 127 0" result="hardAlpha"/>
<feOffset dx="-6" dy="10"/>
<feGaussianBlur stdDeviation="10"/>
<feComposite in2="hardAlpha" operator="out"/>
<feColorMatrix type="matrix" values="0 0 0 0 0 0 0 0 0 0 0 0 0 0 0 0 0 0 0.1 0"/>
<feBlend mode="normal" in2="BackgroundImageFix" result="effect1_dropShadow_2054_609"/>
<feBlend mode="normal" in="SourceGraphic" in2="effect1_dropShadow_2054_609" result="shape"/>
</filter>
<linearGradient id="paint0_linear_2054_609" x1="41.9524" y1="10.9231" x2="54.7085" y2="58.5298" gradientUnits="userSpaceOnUse">
<stop stop-color="#75D8FC"/>
<stop offset="1" stop-color="#0072E5"/>
</linearGradient>
<linearGradient id="paint1_linear_2054_609" x1="41.9524" y1="10.9231" x2="54.7085" y2="58.5298" gradientUnits="userSpaceOnUse">
<stop stop-color="#75D8FC"/>
<stop offset="1" stop-color="#0072E5"/>
</linearGradient>
<clipPath id="clip0_2054_609">
<rect width="34" height="44.0754" fill="white" transform="translate(41.2109 30.2041) rotate(-15)"/>
</clipPath>
</defs>
</svg>
