<svg width="105" height="105" viewBox="0 0 105 105" fill="none" xmlns="http://www.w3.org/2000/svg">
<g filter="url(#filter0_d_2054_613)">
<rect x="29.6992" y="5.2041" width="56" height="56" rx="8" transform="rotate(15 29.6992 5.2041)" fill="white"/>
<g clip-path="url(#clip0_2054_613)">
<path d="M56.2935 35.0492C56.0204 31.5507 54.1218 29.6917 50.7752 29.6448C47.1785 29.5945 43.5799 29.6771 39.9832 29.6254C37.3027 29.587 35.8225 28.3118 35.7393 26.1396C35.6608 24.0881 36.8351 22.4531 38.9215 22.4066C43.7063 22.2998 48.5194 21.9131 53.2788 22.6152C58.1834 23.3388 61.4838 26.2598 63.0111 30.9146C64.655 35.9244 63.3634 40.3598 59.6784 44.097C59.0841 44.6996 58.3972 45.211 57.6043 45.8924C58.7881 47.4374 60.2538 48.4422 62.1008 48.7209C63.6402 48.9532 64.2498 49.6332 64.0738 51.2024C63.9408 52.3871 64.0066 53.5989 64.045 54.7967C64.0817 55.9401 63.5774 56.3104 62.4726 56.1788C56.9286 55.5187 52.5639 52.9248 50.0686 47.9035C47.8709 43.481 44.4414 41.3365 39.6761 41.0401C38.0888 40.9414 36.7494 40.5058 36.0553 38.9419C34.8721 36.276 36.8376 33.5786 39.9316 33.7359C44.3763 33.9618 48.4441 35.2486 51.8736 38.2385C53.5874 39.7325 54.5894 39.5081 55.6002 37.4648C55.9515 36.7547 56.2657 36.0084 56.2935 35.0492Z" fill="#FD3A25"/>
<path d="M37.4028 46.9668C37.0301 48.6368 37.8474 49.7838 39.0644 50.8076C40.1615 51.7306 41.0627 52.7159 41.7632 53.7745C42.4346 54.7891 43.1917 55.9141 44.404 56.0174C46.8252 56.2239 49.0056 53.94 48.9112 51.8342C48.8914 51.3913 48.6995 50.9792 48.4725 50.5983C47.2299 48.5135 45.5745 46.6994 43.6159 45.0892C41.2227 43.1217 38.038 44.1202 37.4028 46.9668Z" fill="#FD3A25"/>
</g>
</g>
<defs>
<filter id="filter0_d_2054_613" x="-1.79297" y="-1.7959" width="108.586" height="108.586" filterUnits="userSpaceOnUse" color-interpolation-filters="sRGB">
<feFlood flood-opacity="0" result="BackgroundImageFix"/>
<feColorMatrix in="SourceAlpha" type="matrix" values="0 0 0 0 0 0 0 0 0 0 0 0 0 0 0 0 0 0 127 0" result="hardAlpha"/>
<feOffset dx="3" dy="13"/>
<feGaussianBlur stdDeviation="10"/>
<feComposite in2="hardAlpha" operator="out"/>
<feColorMatrix type="matrix" values="0 0 0 0 0 0 0 0 0 0 0 0 0 0 0 0 0 0 0.1 0"/>
<feBlend mode="normal" in2="BackgroundImageFix" result="effect1_dropShadow_2054_613"/>
<feBlend mode="normal" in="SourceGraphic" in2="effect1_dropShadow_2054_613" result="shape"/>
</filter>
<clipPath id="clip0_2054_613">
<rect width="34.6474" height="34.6474" fill="white" transform="translate(37.1719 18.2041) rotate(15)"/>
</clipPath>
</defs>
</svg>
