<svg width="165" height="165" viewBox="0 0 165 165" fill="none" xmlns="http://www.w3.org/2000/svg">
<g filter="url(#filter0_d_464_999)">
<rect x="34.6777" y="35.4863" width="91.6944" height="91.6944" rx="11.4618" transform="rotate(-15 34.6777 35.4863)" fill="white"/>
<g clip-path="url(#clip0_464_999)">
<path d="M82.6373 36.5087L93.134 42.4129L70.1148 81.2686L65.7564 65.003L82.6373 36.5087Z" fill="url(#paint0_linear_464_999)"/>
<path d="M75.712 84.4156L98.9816 97.5039L115.862 69.0098L111.504 52.7441L93.1345 42.4119L70.1153 81.2677L70.1233 81.2722L93.1345 42.4119L99.3997 65.7938L89.0411 83.2788L85.1454 68.7399L75.712 84.4156Z" fill="url(#paint1_linear_464_999)"/>
</g>
</g>
<defs>
<filter id="filter0_d_464_999" x="-2.5731" y="-2.57334" width="169.612" height="169.612" filterUnits="userSpaceOnUse" color-interpolation-filters="sRGB">
<feFlood flood-opacity="0" result="BackgroundImageFix"/>
<feColorMatrix in="SourceAlpha" type="matrix" values="0 0 0 0 0 0 0 0 0 0 0 0 0 0 0 0 0 0 127 0" result="hardAlpha"/>
<feOffset dx="-8.59635" dy="14.3272"/>
<feGaussianBlur stdDeviation="14.3272"/>
<feComposite in2="hardAlpha" operator="out"/>
<feColorMatrix type="matrix" values="0 0 0 0 0 0 0 0 0 0 0 0 0 0 0 0 0 0 0.1 0"/>
<feBlend mode="normal" in2="BackgroundImageFix" result="effect1_dropShadow_464_999"/>
<feBlend mode="normal" in="SourceGraphic" in2="effect1_dropShadow_464_999" result="shape"/>
</filter>
<linearGradient id="paint0_linear_464_999" x1="75.3593" y1="38.4589" x2="85.7104" y2="77.0898" gradientUnits="userSpaceOnUse">
<stop stop-color="#7D6CFF"/>
<stop offset="1" stop-color="#3628A0"/>
</linearGradient>
<linearGradient id="paint1_linear_464_999" x1="84.8169" y1="44.6406" x2="98.9816" y2="97.5039" gradientUnits="userSpaceOnUse">
<stop stop-color="#7D6CFF"/>
<stop offset="1" stop-color="#3628A0"/>
</linearGradient>
<clipPath id="clip0_464_999">
<rect width="47.361" height="63.1479" fill="white" transform="translate(59.7637 42.6377) rotate(-15)"/>
</clipPath>
</defs>
</svg>
