<svg width="190" height="190" viewBox="0 0 190 190" fill="none" xmlns="http://www.w3.org/2000/svg">
<g filter="url(#filter0_d_464_986)">
<g clip-path="url(#clip0_464_986)">
<rect x="71.7402" y="5.83594" width="103.156" height="103.156" rx="11.4618" transform="rotate(30 71.7402 5.83594)" fill="white"/>
<g clip-path="url(#clip1_464_986)">
<path d="M97.4679 94.5324L108.93 74.68C109.721 73.3094 109.251 71.557 107.881 70.7657L107.756 70.6936C107.098 70.3137 106.316 70.211 105.582 70.4077L74.4643 78.7456C73.7304 78.9423 73.1044 79.4222 72.7244 80.0803L64.056 95.0945L51.6482 87.9308L60.3167 72.9167C62.5966 68.9678 66.3517 66.0862 70.7561 64.9061L101.874 56.5682C106.278 55.3881 110.971 56.006 114.92 58.2859L115.044 58.358C123.268 63.1056 126.085 73.6205 121.337 81.8436L109.876 101.696C105.128 109.919 94.6131 112.737 86.39 107.989L69.0191 97.9599L76.1827 85.5522L93.5536 95.5812C94.9242 96.3725 96.6766 95.903 97.4679 94.5324ZM80.3027 38.2998L101.396 50.478L81.8245 55.7221L73.1391 50.7076L80.3027 38.2998Z" fill="url(#paint0_linear_464_986)"/>
</g>
</g>
</g>
<defs>
<filter id="filter0_d_464_986" x="-4.19421" y="-4.19313" width="198.223" height="198.223" filterUnits="userSpaceOnUse" color-interpolation-filters="sRGB">
<feFlood flood-opacity="0" result="BackgroundImageFix"/>
<feColorMatrix in="SourceAlpha" type="matrix" values="0 0 0 0 0 0 0 0 0 0 0 0 0 0 0 0 0 0 127 0" result="hardAlpha"/>
<feOffset dx="4.29817" dy="18.6254"/>
<feGaussianBlur stdDeviation="14.3272"/>
<feComposite in2="hardAlpha" operator="out"/>
<feColorMatrix type="matrix" values="0 0 0 0 0 0 0 0 0 0 0 0 0 0 0 0 0 0 0.1 0"/>
<feBlend mode="normal" in2="BackgroundImageFix" result="effect1_dropShadow_464_986"/>
<feBlend mode="normal" in="SourceGraphic" in2="effect1_dropShadow_464_986" result="shape"/>
</filter>
<linearGradient id="paint0_linear_464_986" x1="105.118" y1="52.6271" x2="76.4638" y2="102.258" gradientUnits="userSpaceOnUse">
<stop stop-color="#55E091"/>
<stop offset="1" stop-color="#00AA4A"/>
</linearGradient>
<clipPath id="clip0_464_986">
<rect x="71.7402" y="5.83594" width="103.156" height="103.156" rx="11.4618" transform="rotate(30 71.7402 5.83594)" fill="white"/>
</clipPath>
<clipPath id="clip1_464_986">
<rect width="57.309" height="57.309" fill="white" transform="translate(80.3027 38.2998) rotate(30)"/>
</clipPath>
</defs>
</svg>
