<svg width="133" height="80" viewBox="0 0 133 80" fill="none" xmlns="http://www.w3.org/2000/svg">
<g filter="url(#filter0_d_2205_410)">
<g clip-path="url(#clip0_2205_410)">
<rect x="50.0723" y="-41.6589" width="72" height="72" rx="8" transform="rotate(30 50.0723 -41.6589)" fill="white"/>
<g clip-path="url(#clip1_2205_410)">
<path d="M66.8322 28.9029C72.3204 27.4323 76.9997 23.8419 79.8406 18.9213C82.6815 14.0007 83.4513 8.15306 81.9808 2.66492C80.5102 -2.82326 76.9197 -7.50252 71.9991 -10.3434C67.0786 -13.1843 61.231 -13.9541 55.7428 -12.4836L58.3304 -2.82679C58.7387 -1.30296 60.3265 -0.450505 61.9001 -0.337735C63.1816 -0.245858 64.4384 0.133799 65.5722 0.788384C67.5404 1.92475 68.9766 3.79649 69.5648 5.99178C70.1531 8.18703 69.8451 10.5261 68.7087 12.4943C68.0541 13.6281 67.1556 14.5853 66.0917 15.3056C64.7854 16.1901 63.8365 17.7223 64.2447 19.246L66.8322 28.9029Z" fill="url(#paint0_linear_2205_410)"/>
<path d="M61.8989 30.0017L52.8163 24.7579C51.5042 24.0003 50.5467 22.7525 50.1546 21.289L45.1063 2.44868C44.7142 0.985195 44.9195 -0.574203 45.677 -1.88634L50.9208 -10.9688L61.8989 30.0017Z" fill="url(#paint1_linear_2205_410)"/>
<path d="M45.2012 20.3611L39.6352 17.1477C37.5859 15.9645 36.8837 13.3441 38.0669 11.2947L41.2804 5.7288L45.2012 20.3611Z" fill="url(#paint2_linear_2205_410)"/>
</g>
</g>
</g>
<defs>
<filter id="filter0_d_2205_410" x="-2.92773" y="-48.6589" width="138.355" height="138.354" filterUnits="userSpaceOnUse" color-interpolation-filters="sRGB">
<feFlood flood-opacity="0" result="BackgroundImageFix"/>
<feColorMatrix in="SourceAlpha" type="matrix" values="0 0 0 0 0 0 0 0 0 0 0 0 0 0 0 0 0 0 127 0" result="hardAlpha"/>
<feOffset dx="3" dy="13"/>
<feGaussianBlur stdDeviation="10"/>
<feComposite in2="hardAlpha" operator="out"/>
<feColorMatrix type="matrix" values="0 0 0 0 0 0 0 0 0 0 0 0 0 0 0 0 0 0 0.1 0"/>
<feBlend mode="normal" in2="BackgroundImageFix" result="effect1_dropShadow_2205_410"/>
<feBlend mode="normal" in="SourceGraphic" in2="effect1_dropShadow_2205_410" result="shape"/>
</filter>
<linearGradient id="paint0_linear_2205_410" x1="75.1744" y1="-15.009" x2="75.1744" y2="47.6355" gradientUnits="userSpaceOnUse">
<stop stop-color="#75D8FC"/>
<stop offset="1" stop-color="#0072E5"/>
</linearGradient>
<linearGradient id="paint1_linear_2205_410" x1="75.1744" y1="-15.009" x2="75.1744" y2="47.6355" gradientUnits="userSpaceOnUse">
<stop stop-color="#75D8FC"/>
<stop offset="1" stop-color="#0072E5"/>
</linearGradient>
<linearGradient id="paint2_linear_2205_410" x1="75.1744" y1="-15.009" x2="75.1744" y2="47.6355" gradientUnits="userSpaceOnUse">
<stop stop-color="#75D8FC"/>
<stop offset="1" stop-color="#0072E5"/>
</linearGradient>
<clipPath id="clip0_2205_410">
<rect x="50.0723" y="-41.6589" width="72" height="72" rx="8" transform="rotate(30 50.0723 -41.6589)" fill="white"/>
</clipPath>
<clipPath id="clip1_2205_410">
<rect width="39.99" height="39.99" fill="white" transform="translate(55.9199 -19.6272) rotate(30)"/>
</clipPath>
</defs>
</svg>
