<svg width="92" height="92" viewBox="0 0 92 92" fill="none" xmlns="http://www.w3.org/2000/svg">
<rect width="92" height="92" rx="8" fill="#F5F5F5"/>
<rect width="92" height="92" rx="8" fill="url(#paint0_radial_2399_1058)" fill-opacity="0.2"/>
<g clip-path="url(#clip0_2399_1058)">
<path fill-rule="evenodd" clip-rule="evenodd" d="M41.4921 25.8955C46.5733 25.8957 50.6925 29.7903 50.6926 34.593C50.6926 34.8608 50.6797 35.1276 50.6617 35.3932H58.4115C65.9495 35.3932 68.9095 44.6338 62.6375 48.5859L54.4364 53.7527C52.6709 54.8656 53.1549 57.434 55.2185 57.9021C55.8932 58.055 56.6057 57.9281 57.1753 57.5537L61.9334 54.2358C62.114 54.1099 62.3318 54.042 62.5555 54.042H75.6236C76.1383 54.042 76.3476 54.6734 75.9268 54.9558L62.0937 64.2348C59.5067 65.9359 56.2729 66.5118 53.2086 65.8166C43.8376 63.6909 41.6414 52.0331 49.6596 46.9802L55.1316 43.533L46.7343 43.533H41.3603C39.8172 43.533 38.3605 43.1781 37.0783 42.5513C38.4447 43.4404 41.8227 44.4297 44.6725 44.6181C44.9264 44.6181 45.3388 44.8326 44.8477 45.3149L27.5947 61.7891C27.3969 61.9779 27.1287 62.0839 26.849 62.0839H16.3796C15.91 62.0839 15.675 61.5424 16.0071 61.2257L36.1476 42.0267C33.666 40.4421 32.034 37.7586 32.0337 34.7149C32.0337 29.8448 36.2106 25.8955 41.3631 25.8955H41.4921ZM41.6786 32.68C40.4895 32.68 39.5256 33.2874 39.5256 34.0366C39.5261 34.6543 40.182 35.1739 41.0786 35.3376C41.1658 35.3733 41.2621 35.3932 41.3631 35.3932H42.0023C42.0035 35.3872 42.0025 35.3808 42.0037 35.3747C43.038 35.2759 43.831 34.7158 43.8315 34.0366C43.8315 33.2874 42.8675 32.68 41.6786 32.68Z" fill="url(#paint1_linear_2399_1058)"/>
</g>
<defs>
<radialGradient id="paint0_radial_2399_1058" cx="0" cy="0" r="1" gradientTransform="matrix(57.5578 49.8333 -2.89932 57.5578 25.8894 -9.58333)" gradientUnits="userSpaceOnUse">
<stop stop-color="white"/>
<stop offset="1" stop-color="white" stop-opacity="0"/>
</radialGradient>
<linearGradient id="paint1_linear_2399_1058" x1="46.0016" y1="25.8955" x2="46.0016" y2="66.1048" gradientUnits="userSpaceOnUse">
<stop stop-color="#FF6A5A"/>
<stop offset="1" stop-color="#FD3A25"/>
</linearGradient>
<clipPath id="clip0_2399_1058">
<rect width="60.3" height="40.2093" fill="white" transform="translate(15.8516 25.8955)"/>
</clipPath>
</defs>
</svg>
