<svg width="204" height="70" viewBox="0 0 204 70" fill="none" xmlns="http://www.w3.org/2000/svg">
<rect width="204" height="70" rx="8" fill="#272727"/>
<rect width="204" height="70" rx="8" fill="url(#paint0_radial_2399_1049)" fill-opacity="0.2"/>
<path d="M83.4502 24.2002H87.7096L95.4249 45.4212H91.4991L90.1348 41.6621H81.0401L79.6759 45.4212H75.75L83.4502 24.2002ZM82.3892 37.9636H88.7706L85.5723 29.2175L82.3892 37.9636Z" fill="white"/>
<path d="M108.179 30.2634H111.878V45.7092C111.878 46.8006 111.655 47.7909 111.211 48.6802C110.766 49.5796 110.16 50.3476 109.392 50.9842C108.624 51.6309 107.745 52.1261 106.754 52.4697C105.764 52.8234 104.723 53.0002 103.632 53.0002C102.571 53.0002 101.55 52.7829 100.57 52.3484C99.5897 51.9139 98.7206 51.3177 97.9627 50.5598C97.2149 49.812 96.644 48.9581 96.2499 47.9981L99.6301 46.4671C99.8322 47.0229 100.135 47.508 100.54 47.9223C100.954 48.3467 101.429 48.6751 101.964 48.9076C102.5 49.1501 103.056 49.2714 103.632 49.2714C104.218 49.2714 104.779 49.1905 105.314 49.0288C105.86 48.8671 106.35 48.6297 106.785 48.3164C107.219 48.0132 107.558 47.6394 107.8 47.1947C108.053 46.7602 108.179 46.265 108.179 45.7092V43.572C107.704 44.2389 107.108 44.7796 106.39 45.1939C105.673 45.6082 104.844 45.8153 103.905 45.8153C102.813 45.8153 101.793 45.6082 100.843 45.1939C99.8928 44.7796 99.0541 44.2086 98.3265 43.481C97.609 42.7434 97.0431 41.8945 96.6288 40.9345C96.2246 39.9745 96.0225 38.9438 96.0225 37.8423C96.0225 36.7408 96.2246 35.7101 96.6288 34.7501C97.0431 33.7901 97.609 32.9463 98.3265 32.2187C99.0541 31.481 99.8928 30.905 100.843 30.4907C101.793 30.0764 102.813 29.8692 103.905 29.8692C104.844 29.8692 105.673 30.0764 106.39 30.4907C107.108 30.8949 107.704 31.4305 108.179 32.0975V30.2634ZM103.95 42.2532C104.728 42.2532 105.415 42.0562 106.012 41.6621C106.618 41.2579 107.093 40.7223 107.436 40.0554C107.78 39.3783 107.952 38.6406 107.952 37.8423C107.952 37.0339 107.775 36.2962 107.421 35.6292C107.078 34.9623 106.603 34.4267 105.996 34.0225C105.4 33.6183 104.718 33.4162 103.95 33.4162C103.192 33.4162 102.5 33.6183 101.873 34.0225C101.247 34.4166 100.747 34.9471 100.373 35.6141C99.9989 36.281 99.812 37.0238 99.812 37.8423C99.812 38.6608 99.9989 39.4036 100.373 40.0705C100.747 40.7375 101.247 41.268 101.873 41.6621C102.5 42.0562 103.192 42.2532 103.95 42.2532Z" fill="white"/>
<path d="M121.838 45.8153C120.444 45.8153 119.17 45.4566 118.018 44.7391C116.877 44.0217 115.962 43.0566 115.275 41.844C114.598 40.6314 114.259 39.2924 114.259 37.8271C114.259 36.7257 114.456 35.6949 114.85 34.7349C115.245 33.7648 115.785 32.916 116.472 32.1884C117.17 31.4507 117.978 30.8747 118.898 30.4604C119.817 30.0461 120.797 29.8389 121.838 29.8389C123.021 29.8389 124.102 30.0916 125.082 30.5968C126.072 31.092 126.911 31.7741 127.598 32.6431C128.285 33.5122 128.786 34.5025 129.099 35.6141C129.412 36.7257 129.483 37.8878 129.311 39.1004H118.231C118.372 39.6663 118.605 40.1766 118.928 40.6314C119.251 41.076 119.661 41.4347 120.156 41.7076C120.651 41.9703 121.212 42.1067 121.838 42.1168C122.485 42.1269 123.071 41.9754 123.597 41.6621C124.132 41.3387 124.577 40.9042 124.93 40.3585L128.705 41.2377C128.088 42.5817 127.169 43.6831 125.946 44.5421C124.723 45.3909 123.354 45.8153 121.838 45.8153ZM118.109 36.3265H125.567C125.456 35.7202 125.218 35.1745 124.855 34.6895C124.501 34.1943 124.061 33.8002 123.536 33.5071C123.01 33.2141 122.445 33.0676 121.838 33.0676C121.232 33.0676 120.671 33.2141 120.156 33.5071C119.64 33.7901 119.201 34.1791 118.837 34.6743C118.483 35.1594 118.241 35.7101 118.109 36.3265Z" fill="white"/>
<path d="M145.662 35.8415V45.4212H141.963V36.8116C141.963 36.2154 141.817 35.6747 141.524 35.1897C141.231 34.6945 140.837 34.3055 140.342 34.0225C139.857 33.7295 139.316 33.5829 138.72 33.5829C138.123 33.5829 137.578 33.7295 137.083 34.0225C136.598 34.3055 136.209 34.6945 135.915 35.1897C135.633 35.6747 135.491 36.2154 135.491 36.8116V45.4212H131.793L131.777 30.2634H135.476L135.491 31.6124C136.006 31.0667 136.623 30.6372 137.34 30.324C138.058 30.0006 138.831 29.8389 139.659 29.8389C140.761 29.8389 141.766 30.1118 142.676 30.6575C143.585 31.193 144.308 31.9156 144.843 32.825C145.389 33.7244 145.662 34.7299 145.662 35.8415Z" fill="white"/>
<path d="M155.776 24.2002H160.035L167.751 45.4212H163.825L162.46 41.6621H153.366L152.002 45.4212H148.076L155.776 24.2002ZM154.715 37.9636H161.096L157.898 29.2175L154.715 37.9636Z" fill="white"/>
<path d="M170.749 45.4212V24.2002H174.447V45.4212H170.749Z" fill="white"/>
<path d="M48.7484 46.52C46.9298 47.591 44.8011 48.2 42.5484 48.2C35.7078 48.2 30.1484 42.551 30.1484 35.6C30.1484 28.649 35.7078 23 42.5484 23C44.8011 23 46.9298 23.609 48.7484 24.68C45.0491 26.864 42.5484 30.938 42.5484 35.6C42.5484 40.283 45.0491 44.336 48.7484 46.52Z" fill="#FD3A25"/>
<path d="M48.7484 46.52C46.9298 47.591 44.8011 48.2 42.5484 48.2C35.7078 48.2 30.1484 42.551 30.1484 35.6C30.1484 28.649 35.7078 23 42.5484 23C44.8011 23 46.9298 23.609 48.7484 24.68C45.0491 26.864 42.5484 30.938 42.5484 35.6C42.5484 40.283 45.0491 44.336 48.7484 46.52Z" fill="#FD3A25"/>
<path d="M48.7484 46.52C50.5671 47.591 52.6958 48.2 54.9484 48.2C61.7891 48.2 67.3484 42.551 67.3484 35.6C67.3484 28.649 61.7891 23 54.9484 23C52.6958 23 50.5671 23.609 48.7484 24.68C52.4478 26.864 54.9484 30.938 54.9484 35.6C54.9484 40.283 52.4478 44.336 48.7484 46.52Z" fill="#FD3A25"/>
<path d="M48.7484 46.52C50.5671 47.591 52.6958 48.2 54.9484 48.2C61.7891 48.2 67.3484 42.551 67.3484 35.6C67.3484 28.649 61.7891 23 54.9484 23C52.6958 23 50.5671 23.609 48.7484 24.68C52.4478 26.864 54.9484 30.938 54.9484 35.6C54.9484 40.283 52.4478 44.336 48.7484 46.52Z" fill="#FD3A25"/>
<defs>
<radialGradient id="paint0_radial_2399_1049" cx="0" cy="0" r="1" gradientTransform="matrix(127.628 37.9167 -6.42893 43.794 57.407 -7.29167)" gradientUnits="userSpaceOnUse">
<stop stop-color="white"/>
<stop offset="1" stop-color="white" stop-opacity="0"/>
</radialGradient>
</defs>
</svg>
