<svg width="104" height="104" viewBox="0 0 104 104" fill="none" xmlns="http://www.w3.org/2000/svg">
<rect width="104" height="104" rx="8" fill="#F5F5F5"/>
<rect width="104" height="104" rx="8" fill="url(#paint0_radial_2399_1061)" fill-opacity="0.2"/>
<g clip-path="url(#clip0_2399_1061)">
<path d="M71.1351 75.1203C76.7383 69.5169 79.8863 61.9173 79.8862 53.9931C79.8862 46.0689 76.7383 38.4691 71.1351 32.8659C65.5318 27.2626 57.9321 24.1147 50.0078 24.1147C42.0836 24.1147 34.484 27.2626 28.8807 32.8659L38.74 42.7252C40.2958 44.2809 42.8081 44.2033 44.7874 43.2422C46.3992 42.4595 48.182 42.0417 50.0078 42.0417C53.1776 42.0417 56.2175 43.3009 58.4587 45.5423C60.7001 47.7835 61.9592 50.8234 61.9592 53.9931C61.9592 55.819 61.5414 57.6018 60.7588 59.2136C59.7977 61.1928 59.72 63.7051 61.2757 65.2609L71.1351 75.1203Z" fill="url(#paint1_linear_2399_1061)"/>
<path d="M65.9426 79.8876L51.3159 79.8876C49.2028 79.8877 47.1761 79.0483 45.682 77.554L26.4465 58.3186C24.9523 56.8244 24.1129 54.7978 24.1129 52.6847L24.1129 38.0579L65.9426 79.8876Z" fill="url(#paint2_linear_2399_1061)"/>
<path d="M39.0521 79.8875L30.0886 79.8875C26.7883 79.8875 24.1129 77.2122 24.1129 73.9119L24.1129 64.9483L39.0521 79.8875Z" fill="url(#paint3_linear_2399_1061)"/>
</g>
<defs>
<radialGradient id="paint0_radial_2399_1061" cx="0" cy="0" r="1" gradientTransform="matrix(65.0653 56.3333 -3.27749 65.0653 29.2663 -10.8333)" gradientUnits="userSpaceOnUse">
<stop stop-color="white"/>
<stop offset="1" stop-color="white" stop-opacity="0"/>
</radialGradient>
<linearGradient id="paint1_linear_2399_1061" x1="50.5895" y1="16.2653" x2="94.2737" y2="91.9287" gradientUnits="userSpaceOnUse">
<stop stop-color="#75D8FC"/>
<stop offset="1" stop-color="#0072E5"/>
</linearGradient>
<linearGradient id="paint2_linear_2399_1061" x1="50.5895" y1="16.2653" x2="94.2737" y2="91.9287" gradientUnits="userSpaceOnUse">
<stop stop-color="#75D8FC"/>
<stop offset="1" stop-color="#0072E5"/>
</linearGradient>
<linearGradient id="paint3_linear_2399_1061" x1="50.5895" y1="16.2653" x2="94.2737" y2="91.9287" gradientUnits="userSpaceOnUse">
<stop stop-color="#75D8FC"/>
<stop offset="1" stop-color="#0072E5"/>
</linearGradient>
<clipPath id="clip0_2399_1061">
<rect width="60.31" height="60.31" fill="white" transform="translate(21.8438 21.8452)"/>
</clipPath>
</defs>
</svg>
