<svg width="696" height="382" viewBox="0 0 696 382" fill="none" xmlns="http://www.w3.org/2000/svg">
<path d="M436 190H696" stroke="white" stroke-width="2.11844"/>
<path d="M260 190H8.66157e-06" stroke="white" stroke-width="2"/>
<path d="M304 157V130C304 121.716 297.284 115 289 115H19C10.7157 115 4 108.284 4 100V0" stroke="white" stroke-width="2"/>
<path d="M304 223V252C304 260.284 297.284 267 289 267H19C10.7157 267 3.99999 273.716 3.99999 282V382" stroke="white" stroke-width="2"/>
<path d="M390 227V252C390 260.284 396.716 267 405 267H675C683.284 267 690 273.716 690 282V382" stroke="white" stroke-width="2"/>
<path d="M390 156V130C390 121.716 396.716 115 405 115H675C683.284 115 690 108.284 690 100V0" stroke="white" stroke-width="2"/>
</svg>
