<svg width="104" height="104" viewBox="0 0 104 104" fill="none" xmlns="http://www.w3.org/2000/svg">
<rect width="104" height="104" rx="8" fill="#F5F5F5"/>
<rect width="104" height="104" rx="8" fill="url(#paint0_radial_2399_1068)" fill-opacity="0.2"/>
<g clip-path="url(#clip0_2399_1068)">
<path d="M66.3274 63.462V40.5384C66.3274 38.9558 65.0446 37.673 63.462 37.673H63.3179C62.5579 37.673 61.8293 37.9751 61.292 38.5124L38.5124 61.292C37.9751 61.8293 37.673 62.5579 37.673 63.3179V80.6547H23.3457V63.3179C23.3457 58.7581 25.157 54.385 28.3812 51.1608L51.1608 28.3812C54.385 25.157 58.7581 23.3457 63.3179 23.3457H63.462C72.9572 23.3457 80.6547 31.0431 80.6547 40.5384V63.462C80.6547 72.9572 72.9572 80.6547 63.462 80.6547H43.4039V66.3274H63.462C65.0446 66.3274 66.3274 65.0446 66.3274 63.462ZM23.3457 23.3457H47.702L33.3748 37.673H23.3457V23.3457Z" fill="url(#paint1_linear_2399_1068)"/>
</g>
<defs>
<radialGradient id="paint0_radial_2399_1068" cx="0" cy="0" r="1" gradientTransform="matrix(65.0653 56.3333 -3.27749 65.0653 29.2663 -10.8333)" gradientUnits="userSpaceOnUse">
<stop stop-color="white"/>
<stop offset="1" stop-color="white" stop-opacity="0"/>
</radialGradient>
<linearGradient id="paint1_linear_2399_1068" x1="52.0002" y1="23.3457" x2="52.0002" y2="80.6547" gradientUnits="userSpaceOnUse">
<stop stop-color="#55E091"/>
<stop offset="1" stop-color="#00AA4A"/>
</linearGradient>
<clipPath id="clip0_2399_1068">
<rect width="57.309" height="57.309" fill="white" transform="translate(23.3457 23.3457)"/>
</clipPath>
</defs>
</svg>
